<?xml version="1.0" encoding="UTF-8"?>
<svg version="1.1" xmlns="http://www.w3.org/2000/svg" width="325" height="209">
<path d="M0 0 C107.25 0 214.5 0 325 0 C325 68.97 325 137.94 325 209 C217.75 209 110.5 209 0 209 C0 140.03 0 71.06 0 0 Z " fill="#261C28" transform="translate(0,0)"/>
<path d="M0 0 C0 0.66 0 1.32 0 2 C2.31 2.33 4.62 2.66 7 3 C7 3.66 7 4.32 7 5 C9.97 5.495 9.97 5.495 13 6 C13 6.66 13 7.32 13 8 C13.680625 8.0825 14.36125 8.165 15.0625 8.25 C18.8746907 9.22332528 21.64070329 10.95807455 25 13 C25 13.66 25 14.32 25 15 C27.97 15.495 27.97 15.495 31 16 C30.505 15.319375 30.01 14.63875 29.5 13.9375 C27.63864103 10.29233869 27.48506183 8.0459428 28 4 C29.625 1.5625 29.625 1.5625 32 0 C36.25929368 -0.54373962 39.1344329 0.27066735 43 2 C43.639375 2.103125 44.27875 2.20625 44.9375 2.3125 C49.37363523 3.79121174 52.46905137 7.20357706 55 11 C55.6792748 15.58510491 56.21145477 20.68201962 54.0078125 24.8984375 C50.94111438 27.89583171 48.01408624 28.28887671 43.8125 28.375 C40.8760367 28.2577219 38.81360273 27.93786758 36 27 C36 26.34 36 25.68 36 25 C34.68 24.67 33.36 24.34 32 24 C32 23.34 32 22.68 32 22 C30.68 21.67 29.36 21.34 28 21 C28 20.34 28 19.68 28 19 C27.2575 18.71125 26.515 18.4225 25.75 18.125 C23.43260203 17.17697356 21.22082885 16.15154089 19 15 C19 14.34 19 13.68 19 13 C17.989375 12.731875 16.97875 12.46375 15.9375 12.1875 C12.12672558 11.1064844 8.61124792 9.62137662 5 8 C5 7.34 5 6.68 5 6 C2.16560863 5.89098495 -0.66450203 5.81222096 -3.5 5.75 C-4.29148438 5.71648437 -5.08296875 5.68296875 -5.8984375 5.6484375 C-11.22186639 5.56116817 -14.77597551 6.44735094 -19.38867188 9.13378906 C-21 10 -21 10 -23 10 C-23 10.66 -23 11.32 -23 12 C-24.97946592 13.36363208 -26.9819245 14.69418644 -29 16 C-29.556875 16.5775 -30.11375 17.155 -30.6875 17.75 C-32 19 -32 19 -35 19 C-35 19.66 -35 20.32 -35 21 C-36.32 21.33 -37.64 21.66 -39 22 C-39 22.66 -39 23.32 -39 24 C-40.98 24.33 -42.96 24.66 -45 25 C-45 25.66 -45 26.32 -45 27 C-47.9280927 27.8356429 -50.58176143 28.16205486 -53.625 28.1875 C-54.78902344 28.20876953 -54.78902344 28.20876953 -55.9765625 28.23046875 C-58 28 -58 28 -60 26 C-60.125 23.375 -60.125 23.375 -60 21 C-59.01 21.33 -58.02 21.66 -57 22 C-57 22.99 -57 23.98 -57 25 C-48.96427582 23.68266817 -40.88248493 20.88248493 -35 15 C-34.01 15 -33.02 15 -32 15 C-32 14.34 -32 13.68 -32 13 C-30.390625 11.52734375 -30.390625 11.52734375 -28.25 9.9375 C-27.55390625 9.41027344 -26.8578125 8.88304687 -26.140625 8.33984375 C-24.04902334 7.03068432 -22.40999065 6.43966046 -20 6 C-20 5.34 -20 4.68 -20 4 C-13.08856084 0.30318371 -7.68663531 -0.15071834 0 0 Z " fill="#C16C22" transform="translate(171,171)"/>
<path d="M0 0 C0.75 2.75 0.75 2.75 1 6 C-0.8125 8.125 -0.8125 8.125 -3 10 C-4.23512079 12.13309192 -4.23512079 12.13309192 -5 14 C-5.66 14 -6.32 14 -7 14 C-7.33 15.98 -7.66 17.96 -8 20 C-7.38511719 19.71125 -6.77023438 19.4225 -6.13671875 19.125 C-5.32847656 18.75375 -4.52023438 18.3825 -3.6875 18 C-2.88699219 17.62875 -2.08648437 17.2575 -1.26171875 16.875 C1 16 1 16 4 16 C4 16.99 4 17.98 4 19 C3.34 19 2.68 19 2 19 C2.33 19.99 2.66 20.98 3 22 C4.98 22 6.96 22 9 22 C9.061875 23.299375 9.12375 24.59875 9.1875 25.9375 C9.68791404 30.67276122 11.33785127 33.95779171 13.84375 37.95703125 C16.22228337 42.15964258 16.11026629 45.97337056 16.0625 50.75 C16.05347656 51.92046875 16.04445312 53.0909375 16.03515625 54.296875 C16.02355469 55.18890625 16.01195312 56.0809375 16 57 C16.66 57 17.32 57 18 57 C18 57.99 18 58.98 18 60 C17.01 60 16.02 60 15 60 C14.7525 59.21625 14.505 58.4325 14.25 57.625 C12.84610901 54.67682892 11.99324263 54.0975223 9 53 C9 52.34 9 51.68 9 51 C7.515 50.505 7.515 50.505 6 50 C4.875 44.25 4.875 44.25 6 42 C4.68 42 3.36 42 2 42 C2.66 40.35 3.32 38.7 4 37 C2.02 37.495 2.02 37.495 0 38 C-0.33 37.01 -0.66 36.02 -1 35 C-0.34 35 0.32 35 1 35 C1 34.34 1 33.68 1 33 C-0.32 33 -1.64 33 -3 33 C-3 32.34 -3 31.68 -3 31 C-4.32 31 -5.64 31 -7 31 C-7 30.01 -7 29.02 -7 28 C-6.01 28 -5.02 28 -4 28 C-4 26.35 -4 24.7 -4 23 C-5.65 22.67 -7.3 22.34 -9 22 C-12.33949284 26.63039069 -12.33949284 26.63039069 -14 32 C-15.32 32 -16.64 32 -18 32 C-18.96070434 29.11788698 -19.10581883 27.30149956 -19.0625 24.3125 C-19.05347656 23.50425781 -19.04445313 22.69601563 -19.03515625 21.86328125 C-19.02355469 21.24839844 -19.01195313 20.63351563 -19 20 C-18.01 19.67 -17.02 19.34 -16 19 C-16.18433594 18.42765625 -16.36867188 17.8553125 -16.55859375 17.265625 C-17.28163726 13.55442821 -16.02067687 10.60238895 -15 7 C-14.34 7 -13.68 7 -13 7 C-13 6.34 -13 5.68 -13 5 C-11.35 5.33 -9.7 5.66 -8 6 C-8 5.34 -8 4.68 -8 4 C-8.66 4 -9.32 4 -10 4 C-9.625 2.0625 -9.625 2.0625 -9 0 C-5.93109813 -1.53445094 -3.29905734 -0.54984289 0 0 Z " fill="#C66F22" transform="translate(130,92)"/>
<path d="M0 0 C2.11721733 1.64672459 4.0244327 3.20075855 5.8125 5.1875 C6.080625 4.56875 6.34875 3.95 6.625 3.3125 C7.8125 1.1875 7.8125 1.1875 10.8125 -0.8125 C13.15234375 -1.078125 13.15234375 -1.078125 15.75 -1.0625 C16.60464844 -1.06765625 17.45929688 -1.0728125 18.33984375 -1.078125 C22.11795195 -0.67226188 24.15362121 0.38743289 26.5625 3.3125 C28.23978337 7.17025174 28.0252899 10.00263202 27.8125 14.1875 C22.8625 14.1875 17.9125 14.1875 12.8125 14.1875 C12.4825 12.5375 12.1525 10.8875 11.8125 9.1875 C10.1625 9.1875 8.5125 9.1875 6.8125 9.1875 C6.668125 10.115625 6.52375 11.04375 6.375 12 C5.8125 15.1875 5.8125 15.1875 4.8125 18.1875 C3.4925 17.5275 2.1725 16.8675 0.8125 16.1875 C0.8125 15.5275 0.8125 14.8675 0.8125 14.1875 C-5.4575 14.1875 -11.7275 14.1875 -18.1875 14.1875 C-18.1875 5.1875 -18.1875 5.1875 -16.5 2.25 C-11.43042608 -2.27151187 -6.02964739 -3.42862303 0 0 Z " fill="#ECA728" transform="translate(161.1875,57.8125)"/>
<path d="M0 0 C2 2 2 2 2.25 4.5 C2 7 2 7 0 9 C-3.125 9.125 -3.125 9.125 -6 9 C-6.33 7.68 -6.66 6.36 -7 5 C-9.62876213 5.96387945 -10.77455769 6.56457894 -12.08203125 9.08984375 C-13.211485 12.67045244 -13.57242607 16.15211444 -13.8125 19.875 C-13.87630859 20.55691406 -13.94011719 21.23882812 -14.00585938 21.94140625 C-14.35482571 27.10217605 -13.37002035 30.40110195 -11 35 C-9.26043342 36.73956658 -6.8063378 36.37190386 -4.4375 36.5625 C-3.42558594 36.64628906 -2.41367188 36.73007813 -1.37109375 36.81640625 C-0.19740234 36.90728516 -0.19740234 36.90728516 1 37 C1 36.34 1 35.68 1 35 C1.66386719 34.70867187 2.32773438 34.41734375 3.01171875 34.1171875 C8.72568699 31.46457159 12.46143941 29.25076733 16 24 C16.495 22.515 16.495 22.515 17 21 C15.02 21 13.04 21 11 21 C9.64560332 18.29120665 9.93498549 15.99066732 10 13 C12.57213134 11.38050989 13.67669159 10.95591249 16.75 11.375 C17.4925 11.58125 18.235 11.7875 19 12 C19 12.66 19 13.32 19 14 C19.66 14 20.32 14 21 14 C21.45908608 23.7088204 21.45908608 23.7088204 20 27.8125 C16.12980191 32.04552916 11.33000953 35.79915458 6 38 C4.68 38 3.36 38 2 38 C2 38.66 2 39.32 2 40 C1.31292969 40.09796875 0.62585938 40.1959375 -0.08203125 40.296875 C-0.98308594 40.44640625 -1.88414062 40.5959375 -2.8125 40.75 C-3.70582031 40.88921875 -4.59914063 41.0284375 -5.51953125 41.171875 C-8.50572658 42.168841 -9.38380344 43.3582435 -11 46 C-14.37462715 45.45276317 -16.08235 44.9451 -19 43 C-19.1875 40.375 -19.1875 40.375 -19 38 C-18.34 38 -17.68 38 -17 38 C-17.18464366 33.65815798 -17.18464366 33.65815798 -19 30 C-20.04715744 21.15924456 -17.72619057 13.33678814 -15 5 C-14.34 5 -13.68 5 -13 5 C-12.79375 4.38125 -12.5875 3.7625 -12.375 3.125 C-9.5232413 -1.28226344 -4.67588406 -1.55862802 0 0 Z " fill="#CD902C" transform="translate(130,146)"/>
<path d="M0 0 C5.28 0.33 10.56 0.66 16 1 C16 1.99 16 2.98 16 4 C15.34 4 14.68 4 14 4 C13.79375 4.721875 13.5875 5.44375 13.375 6.1875 C11.52471012 9.97218384 9.39759562 11.52258653 6 14 C5.34 14 4.68 14 4 14 C4 14.66 4 15.32 4 16 C2.02 16.33 0.04 16.66 -2 17 C-2 17.66 -2 18.32 -2 19 C-5.55780196 18.39009109 -8.6828589 17.4216319 -12 16 C-12 15.34 -12 14.68 -12 14 C-12.73605469 13.93683594 -13.47210938 13.87367187 -14.23046875 13.80859375 C-17.88694827 12.74104613 -19.02546935 11.06449692 -21.3125 8.0625 C-22.00988281 7.16660156 -22.70726562 6.27070312 -23.42578125 5.34765625 C-25 3 -25 3 -25 1 C-20.05 1 -15.1 1 -10 1 C-9.34 2.98 -8.68 4.96 -8 7 C-5.525 7.495 -5.525 7.495 -3 8 C-2.67 6.02 -2.34 4.04 -2 2 C-1.34 2 -0.68 2 0 2 C0 1.34 0 0.68 0 0 Z " fill="#E3A12D" transform="translate(170,75)"/>
<path d="M0 0 C2.6875 0.9375 2.6875 0.9375 5 2 C5.99 2.33 6.98 2.66 8 3 C7.34 3 6.68 3 6 3 C6 3.99 6 4.98 6 6 C6.78375 6.226875 7.5675 6.45375 8.375 6.6875 C11 8 11 8 12.3125 10.0625 C13.23636055 14.00990416 13.70002281 17.98051421 13 22 C11.69921875 23.7578125 11.69921875 23.7578125 10 25 C6.27013478 25.26641894 3.55353929 25.1845131 0 24 C0 23.34 0 22.68 0 22 C-1.32 21.67 -2.64 21.34 -4 21 C-4 20.34 -4 19.68 -4 19 C-6.475 18.01 -6.475 18.01 -9 17 C-8.34 16.67 -7.68 16.34 -7 16 C-7.495 15.319375 -7.99 14.63875 -8.5 13.9375 C-10.36135897 10.29233869 -10.51493817 8.0459428 -10 4 C-7.22113836 -0.16829247 -4.84804862 -0.59363861 0 0 Z " fill="#312329" transform="translate(209,171)"/>
<path d="M0 0 C1.65 0.33 3.3 0.66 5 1 C4.90460938 1.88042969 4.80921875 2.76085937 4.7109375 3.66796875 C4.60007813 4.82941406 4.48921875 5.99085937 4.375 7.1875 C4.25898438 8.33605469 4.14296875 9.48460938 4.0234375 10.66796875 C3.99976574 14.03330416 4.52580201 16.01221706 6 19 C9.3 19 12.6 19 16 19 C16.33 18.34 16.66 17.68 17 17 C18.98 17 20.96 17 23 17 C23 17.66 23 18.32 23 19 C24.093125 18.95875 25.18625 18.9175 26.3125 18.875 C30 19 30 19 33 21 C33 24 33 24 30.76953125 26.26171875 C29.79371094 27.06222656 28.81789062 27.86273438 27.8125 28.6875 C26.36810547 29.89986328 26.36810547 29.89986328 24.89453125 31.13671875 C21.85714298 33.09196059 20.52035369 33.44406655 17 33 C17 31.02 17 29.04 17 27 C15.96939453 27.01740234 15.96939453 27.01740234 14.91796875 27.03515625 C14.01691406 27.04417969 13.11585938 27.05320312 12.1875 27.0625 C10.84751953 27.07990234 10.84751953 27.07990234 9.48046875 27.09765625 C7 27 7 27 4 26 C4 25.34 4 24.68 4 24 C3.21625 23.7525 2.4325 23.505 1.625 23.25 C-1.47813501 21.77231666 -1.84712992 21.15971799 -3 18 C-3.1953125 14.984375 -3.1953125 14.984375 -3.125 11.75 C-3.10695312 10.67234375 -3.08890625 9.5946875 -3.0703125 8.484375 C-3.04710937 7.66453125 -3.02390625 6.8446875 -3 6 C-2.34 6 -1.68 6 -1 6 C-0.67 4.02 -0.34 2.04 0 0 Z " fill="#E09D2A" transform="translate(208,91)"/>
<path d="M0 0 C6.27 0 12.54 0 19 0 C19.45572917 2.5390625 19.91145833 5.078125 20.3671875 7.6171875 C20.83044703 10.16505988 20.83044703 10.16505988 23 12 C23.32752234 14.71454956 23.1308425 17.25230759 23 20 C22 21 22 21 18.9375 21.0625 C17.968125 21.041875 16.99875 21.02125 16 21 C16 21.66 16 22.32 16 23 C14.35 22.67 12.7 22.34 11 22 C10.67 19.69 10.34 17.38 10 15 C8.68 14.67 7.36 14.34 6 14 C5.67 12.35 5.34 10.7 5 9 C3.68 8.67 2.36 8.34 1 8 C0.67 5.36 0.34 2.72 0 0 Z " fill="#F1AB2C" transform="translate(138,102)"/>
<path d="M0 0 C0.74362793 0.01047363 1.48725586 0.02094727 2.25341797 0.03173828 C3.46191406 0.04140625 3.46191406 0.04140625 4.69482422 0.05126953 C5.95746094 0.07640625 5.95746094 0.07640625 7.24560547 0.10205078 C8.51984375 0.11558594 8.51984375 0.11558594 9.81982422 0.12939453 C11.9202043 0.15299431 14.02043991 0.18886595 16.12060547 0.22705078 C16.92013685 3.51401311 17.21719483 4.9372827 16.12060547 8.22705078 C14.47060547 8.55705078 12.82060547 8.88705078 11.12060547 9.22705078 C10.79060547 11.20705078 10.46060547 13.18705078 10.12060547 15.22705078 C9.13060547 15.22705078 8.14060547 15.22705078 7.12060547 15.22705078 C6.99685547 16.01080078 6.87310547 16.79455078 6.74560547 17.60205078 C6.12060547 20.22705078 6.12060547 20.22705078 4.12060547 22.22705078 C1.73779297 22.20361328 1.73779297 22.20361328 -1.00439453 21.85205078 C-1.91447266 21.74119141 -2.82455078 21.63033203 -3.76220703 21.51611328 C-4.46087891 21.42072266 -5.15955078 21.32533203 -5.87939453 21.22705078 C-6.12336463 14.73473548 -6.04403115 8.42699764 -3.87939453 2.22705078 C-1.87939453 0.22705078 -1.87939453 0.22705078 0 0 Z " fill="#F1AB2A" transform="translate(178.87939453125,101.77294921875)"/>
<path d="M0 0 C1.65 0.33 3.3 0.66 5 1 C4.34 2.98 3.68 4.96 3 7 C4.33038449 7.3449145 5.66457061 7.67516582 7 8 C7.845625 8.226875 8.69125 8.45375 9.5625 8.6875 C12.25525964 9.30360761 12.25525964 9.30360761 15 7 C15.99 7 16.98 7 18 7 C17.67 4.69 17.34 2.38 17 0 C19.475 0.495 19.475 0.495 22 1 C22.1953125 7.0546875 22.1953125 7.0546875 22 9 C21.34 9.66 20.68 10.32 20 11 C19.01 11 18.02 11 17 11 C17 12.32 17 13.64 17 15 C17.78375 15.12375 18.5675 15.2475 19.375 15.375 C22 16 22 16 24 18 C23.625 21.625 23.625 21.625 23 25 C21.02 25.33 19.04 25.66 17 26 C17.33 23.69 17.66 21.38 18 19 C17.01 19 16.02 19 15 19 C15 18.34 15 17.68 15 17 C12.03 17 9.06 17 6 17 C6 17.66 6 18.32 6 19 C5.01 19 4.02 19 3 19 C3.66 20.98 4.32 22.96 5 25 C2.625 25.625 2.625 25.625 0 26 C-2 24 -2 24 -2.375 21.125 C-2 18 -2 18 -0.125 15.625 C2 14 2 14 4 14 C2.36587557 12.29159719 1.13093906 11.06546953 -1 10 C-1.75 6.625 -1.75 6.625 -2 3 C-1.34 2.01 -0.68 1.02 0 0 Z " fill="#DE9B2A" transform="translate(156,126)"/>
<path d="M0 0 C2.97 0.33 5.94 0.66 9 1 C9.33 2.32 9.66 3.64 10 5 C10.515625 5.5775 11.03125 6.155 11.5625 6.75 C13.7433403 10.16348916 13.20006394 12.99872124 13 17 C12.34 17 11.68 17 11 17 C10.690625 17.639375 10.38125 18.27875 10.0625 18.9375 C9 21 9 21 8 22 C6.37747508 22.09886353 4.75052727 22.12971167 3.125 22.125 C2.24070312 22.12757812 1.35640625 22.13015625 0.4453125 22.1328125 C-2 22 -2 22 -5 21 C-6.78631394 16.95728951 -7.56107138 13.39505911 -7 9 C-5.17680876 6.06987122 -4.02957119 4.3717896 -0.75 3.1875 C-0.1725 3.125625 0.405 3.06375 1 3 C0.67 2.01 0.34 1.02 0 0 Z " fill="#E07A24" transform="translate(91,89)"/>
<path d="M0 0 C3.13871412 0.07473129 5.29269762 0.38212666 7.69921875 2.484375 C11.9093492 7.25517658 13.13892332 10.62673943 13.1875 17 C13.20167969 17.845625 13.21585938 18.69125 13.23046875 19.5625 C12.97714903 22.24167802 12.5551909 23.80212769 11 26 C8.875 26.75 8.875 26.75 7 27 C6.97298592 24.89590361 6.95359777 22.79170822 6.9375 20.6875 C6.92009766 18.92986328 6.92009766 18.92986328 6.90234375 17.13671875 C7 14 7 14 8 11 C7.01 11 6.02 11 5 11 C4.67 10.01 4.34 9.02 4 8 C3.34 7.67 2.68 7.34 2 7 C2.33 10.63 2.66 14.26 3 18 C2.34 18 1.68 18 1 18 C1.495 18.515625 1.99 19.03125 2.5 19.5625 C4.49649241 22.80680017 4.21564385 25.26217334 4 29 C3.34 29 2.68 29 2 29 C2 28.34 2 27.68 2 27 C1.01 26.67 0.02 26.34 -1 26 C-4.79344157 22.09817439 -5.35045165 18.98220646 -5.5625 13.5625 C-5.40111338 7.4298084 -4.14064541 4.45119381 0 0 Z " fill="#D47325" transform="translate(162,28)"/>
<path d="M0 0 C0.75 2.75 0.75 2.75 1 6 C-0.75 8.1875 -0.75 8.1875 -3 10 C-3.495 10.5775 -3.99 11.155 -4.5 11.75 C-6 13 -6 13 -10 13 C-9.814375 13.94875 -9.62875 14.8975 -9.4375 15.875 C-9 19 -9 19 -10 21 C-10.66 21 -11.32 21 -12 21 C-12.66 24.63 -13.32 28.26 -14 32 C-15.32 32 -16.64 32 -18 32 C-18.96070434 29.11788698 -19.10581883 27.30149956 -19.0625 24.3125 C-19.05347656 23.50425781 -19.04445313 22.69601563 -19.03515625 21.86328125 C-19.02355469 21.24839844 -19.01195313 20.63351563 -19 20 C-18.01 19.67 -17.02 19.34 -16 19 C-16.18433594 18.42765625 -16.36867188 17.8553125 -16.55859375 17.265625 C-17.28163726 13.55442821 -16.02067687 10.60238895 -15 7 C-14.34 7 -13.68 7 -13 7 C-13 6.34 -13 5.68 -13 5 C-11.35 5.33 -9.7 5.66 -8 6 C-8 5.34 -8 4.68 -8 4 C-8.66 4 -9.32 4 -10 4 C-9.625 2.0625 -9.625 2.0625 -9 0 C-5.93109813 -1.53445094 -3.29905734 -0.54984289 0 0 Z " fill="#F3AA28" transform="translate(130,92)"/>
<path d="M0 0 C1.875 0.3125 1.875 0.3125 4 1 C5.9451 3.91765 6.45276317 5.62537285 7 9 C7 7.68 7 6.36 7 5 C10.10937162 5.07403266 12.27352655 5.24111172 14.48828125 7.5546875 C14.96652344 8.17601563 15.44476563 8.79734375 15.9375 9.4375 C18.93640648 13.31937364 21.22838394 14.14110911 26 15 C26 16.65 26 18.3 26 20 C20.70416124 22.64791938 14.4662777 21.07164591 9.125 19.3125 C5.79756647 18.16069609 4.32735229 17.43061578 2.1796875 14.60546875 C1 12 1 12 1 8 C1.66 8 2.32 8 3 8 C2.505 7.236875 2.01 6.47375 1.5 5.6875 C0 3 0 3 0 0 Z " fill="#E7A42A" transform="translate(195,112)"/>
<path d="M0 0 C1.875 1.25 1.875 1.25 3 3 C3 4.32 3 5.64 3 7 C2.34 7 1.68 7 1 7 C0.67 14.92 0.34 22.84 0 31 C-1.65 31.33 -3.3 31.66 -5 32 C-6 31 -6 31 -6.11352539 28.95874023 C-6.10828857 28.08419189 -6.10305176 27.20964355 -6.09765625 26.30859375 C-6.09282227 24.89223633 -6.09282227 24.89223633 -6.08789062 23.44726562 C-6.07951172 22.45404297 -6.07113281 21.46082031 -6.0625 20.4375 C-6.05798828 19.44041016 -6.05347656 18.44332031 -6.04882812 17.41601562 C-6.03700007 14.94395151 -6.02051849 12.47200482 -6 10 C-6.66 10 -7.32 10 -8 10 C-9.32850242 3.59903382 -9.32850242 3.59903382 -7.9375 1.0625 C-5.13281671 -0.47555213 -3.14485925 -0.39310741 0 0 Z " fill="#BC6F2E" transform="translate(170,101)"/>
<path d="M0 0 C0 0.66 0 1.32 0 2 C-3.63 2.33 -7.26 2.66 -11 3 C-7.04 3.33 -3.08 3.66 1 4 C1 4.33 1 4.66 1 5 C0.0821875 5.02578125 -0.835625 5.0515625 -1.78125 5.078125 C-9.29373269 5.42534059 -14.53737651 6.14728215 -21 10 C-21.66 10 -22.32 10 -23 10 C-23 10.66 -23 11.32 -23 12 C-24.97946592 13.36363208 -26.9819245 14.69418644 -29 16 C-29.556875 16.5775 -30.11375 17.155 -30.6875 17.75 C-32 19 -32 19 -35 19 C-35 19.66 -35 20.32 -35 21 C-36.32 21.33 -37.64 21.66 -39 22 C-39 22.66 -39 23.32 -39 24 C-40.98 24.33 -42.96 24.66 -45 25 C-45 25.66 -45 26.32 -45 27 C-47.9280927 27.8356429 -50.58176143 28.16205486 -53.625 28.1875 C-54.78902344 28.20876953 -54.78902344 28.20876953 -55.9765625 28.23046875 C-58 28 -58 28 -60 26 C-60.125 23.375 -60.125 23.375 -60 21 C-59.01 21.33 -58.02 21.66 -57 22 C-57 22.99 -57 23.98 -57 25 C-48.96427582 23.68266817 -40.88248493 20.88248493 -35 15 C-34.01 15 -33.02 15 -32 15 C-32 14.34 -32 13.68 -32 13 C-30.390625 11.52734375 -30.390625 11.52734375 -28.25 9.9375 C-27.55390625 9.41027344 -26.8578125 8.88304687 -26.140625 8.33984375 C-24.04902334 7.03068432 -22.40999065 6.43966046 -20 6 C-20 5.34 -20 4.68 -20 4 C-13.08856084 0.30318371 -7.68663531 -0.15071834 0 0 Z " fill="#C86F20" transform="translate(171,171)"/>
<path d="M0 0 C0 0.66 0 1.32 0 2 C1.093125 1.95875 2.18625 1.9175 3.3125 1.875 C7 2 7 2 10 4 C10 7 10 7 7.76953125 9.26171875 C6.30580078 10.46248047 6.30580078 10.46248047 4.8125 11.6875 C3.84957031 12.49574219 2.88664063 13.30398437 1.89453125 14.13671875 C-1.14285702 16.09196059 -2.47964631 16.44406655 -6 16 C-6.13277344 15.39671875 -6.26554688 14.7934375 -6.40234375 14.171875 C-6.57894531 13.37265625 -6.75554687 12.5734375 -6.9375 11.75 C-7.11152344 10.96109375 -7.28554687 10.1721875 -7.46484375 9.359375 C-7.81098774 7.83330953 -8.19795973 6.31569478 -8.6328125 4.8125 C-9 3 -9 3 -7.9375 1.25 C-5.24828988 -0.48497427 -3.13104437 -0.20873629 0 0 Z " fill="#D07224" transform="translate(231,108)"/>
<path d="M0 0 C0.80824219 0.10183594 1.61648437 0.20367187 2.44921875 0.30859375 C3.06410156 0.39238281 3.67898437 0.47617188 4.3125 0.5625 C4.3125 1.2225 4.3125 1.8825 4.3125 2.5625 C6.6225 2.8925 8.9325 3.2225 11.3125 3.5625 C11.3125 4.2225 11.3125 4.8825 11.3125 5.5625 C13.7875 6.0575 13.7875 6.0575 16.3125 6.5625 C15.6525 9.5325 14.9925 12.5025 14.3125 15.5625 C11.6725 15.2325 9.0325 14.9025 6.3125 14.5625 C5.3225 11.9225 4.3325 9.2825 3.3125 6.5625 C0.89604218 6.39562552 0.89604218 6.39562552 -1.6875 6.5625 C-2.3475 7.2225 -3.0075 7.8825 -3.6875 8.5625 C-4.6775 8.5625 -5.6675 8.5625 -6.6875 8.5625 C-7.0175 5.9225 -7.3475 3.2825 -7.6875 0.5625 C-4.59271121 -0.46909626 -3.16118607 -0.41232862 0 0 Z " fill="#D3932A" transform="translate(209.6875,83.4375)"/>
<path d="M0 0 C4.99472507 0.28541286 7.44211087 2.7730773 11 6 C10.66089854 9.07840541 10.32619319 10.64920172 8.1875 12.94921875 C7.465625 13.52285156 6.74375 14.09648437 6 14.6875 C3.03807329 16.96879293 3.03807329 16.96879293 1 20 C0.01 20 -0.98 20 -2 20 C-1.33333333 17.33333333 -0.66666667 14.66666667 0 12 C-1.175625 12.7115625 -1.175625 12.7115625 -2.375 13.4375 C-3.88948678 14.33898023 -5.4235897 15.21179485 -7 16 C-6.25 10.25 -6.25 10.25 -4 8 C-2.98034573 5.67518826 -1.97940398 3.34205301 -1 1 C-0.67 0.67 -0.34 0.34 0 0 Z " fill="#CB7522" transform="translate(126,158)"/>
<path d="M0 0 C3.36996335 2.49084248 4.81810427 3.88588865 5.5 8.0625 C4.67833209 12.88979896 4.67833209 12.88979896 2 15 C-1.09876311 15.56550984 -3.90068481 15.55983906 -7 15 C-9.0625 13.4375 -9.0625 13.4375 -10 11 C-10.49398209 7.0481433 -10.6085569 4.91283535 -8.375 1.5625 C-5.24316508 -0.49791771 -3.68455227 -0.6767545 0 0 Z " fill="#EFAB34" transform="translate(209,171)"/>
<path d="M0 0 C0.99 0 1.98 0 3 0 C3.66 2.31 4.32 4.62 5 7 C3.68 7 2.36 7 1 7 C1 7.66 1 8.32 1 9 C2.65 8.34 4.3 7.68 6 7 C6 5.68 6 4.36 6 3 C6.99 3 7.98 3 9 3 C9 3.99 9 4.98 9 6 C9.99 6 10.98 6 12 6 C13.4783226 8.95664519 13.06032783 11.74229737 13 15 C12.34 15 11.68 15 11 15 C10.67 15.66 10.34 16.32 10 17 C10 15.35 10 13.7 10 12 C9.34 12 8.68 12 8 12 C8 13.98 8 15.96 8 18 C6.35 17.67 4.7 17.34 3 17 C3 17.66 3 18.32 3 19 C2.01 19 1.02 19 0 19 C-3.00559652 13.99067246 -3.29341888 10.67276511 -3 5 C-1.68 4.34 -0.36 3.68 1 3 C0.67 2.01 0.34 1.02 0 0 Z " fill="#DB9927" transform="translate(239,88)"/>
<path d="M0 0 C2 2 2 2 2.25 4.5 C2 7 2 7 0 9 C-3.125 9.125 -3.125 9.125 -6 9 C-6.33 7.68 -6.66 6.36 -7 5 C-9.6096008 5.95685363 -10.76955488 6.55266536 -12.0625 9.0625 C-13.25248433 12.79111757 -13.70197206 16.43243225 -14.125 20.3125 C-14.21136719 21.05306641 -14.29773438 21.79363281 -14.38671875 22.55664062 C-14.59734705 24.37038435 -14.79952986 26.18510543 -15 28 C-15.33 28 -15.66 28 -16 28 C-16 25.36 -16 22.72 -16 20 C-16.66 20 -17.32 20 -18 20 C-17.67 23.63 -17.34 27.26 -17 31 C-17.66 30.67 -18.32 30.34 -19 30 C-19.65895285 21.03091948 -17.77900436 13.49829459 -15 5 C-14.34 5 -13.68 5 -13 5 C-12.79375 4.38125 -12.5875 3.7625 -12.375 3.125 C-9.5232413 -1.28226344 -4.67588406 -1.55862802 0 0 Z " fill="#E2A130" transform="translate(130,146)"/>
<path d="M0 0 C3.33829971 0.18044863 4.65930572 0.62633531 6.9375 3.125 C7.618125 4.07375 8.29875 5.0225 9 6 C10.63158036 7.76163386 12.26851924 9.51638943 13.92578125 11.25390625 C15 13 15 13 14.66796875 15.21484375 C14.44753906 15.80394531 14.22710937 16.39304688 14 17 C11.83125748 16.49396008 10.00032373 16.00016187 8 15 C8 15.99 8 16.98 8 18 C6.68 18 5.36 18 4 18 C1 13.92857143 1 13.92857143 1 11 C0.34 11 -0.32 11 -1 11 C-1.02688151 9.35425434 -1.04634123 7.70838587 -1.0625 6.0625 C-1.07410156 5.14597656 -1.08570313 4.22945312 -1.09765625 3.28515625 C-1 1 -1 1 0 0 Z " fill="#EDA223" transform="translate(178,154)"/>
<path d="M0 0 C0 0.99 0 1.98 0 3 C-2.31 3.33 -4.62 3.66 -7 4 C-7 4.66 -7 5.32 -7 6 C-6.43796875 5.83628906 -5.8759375 5.67257813 -5.296875 5.50390625 C-2.86940944 4.97135003 -0.73110319 4.90101319 1.75 4.9375 C2.54921875 4.94652344 3.3484375 4.95554687 4.171875 4.96484375 C4.77515625 4.97644531 5.3784375 4.98804687 6 5 C6.33 5.99 6.66 6.98 7 8 C7.66 8 8.32 8 9 8 C9 10.31 9 12.62 9 15 C6 14 6 14 4.5 11.4375 C4.005 10.633125 3.51 9.82875 3 9 C2.01 9 1.02 9 0 9 C0 9.66 0 10.32 0 11 C0.99 11 1.98 11 3 11 C3 12.65 3 14.3 3 16 C1.35 15.67 -0.3 15.34 -2 15 C-2.33 13.35 -2.66 11.7 -3 10 C-4.670625 10.061875 -4.670625 10.061875 -6.375 10.125 C-10 10 -10 10 -12 8 C-11.81952911 5.2929367 -10.96695838 3.95425007 -9.375 1.75 C-6.17063934 -0.61110785 -3.88290217 -0.29868478 0 0 Z " fill="#C66F1D" transform="translate(142,83)"/>
<path d="M0 0 C0.99 0 1.98 0 3 0 C3.33 0.99 3.66 1.98 4 3 C5.65 3.33 7.3 3.66 9 4 C9.33 4.99 9.66 5.98 10 7 C8.8553125 7.2784375 8.8553125 7.2784375 7.6875 7.5625 C3.99033128 9.54005536 3.32721616 12.2508018 2 16 C1.44644138 17.31629607 0.88429413 18.62902227 0.3125 19.9375 C-0.3371875 21.4534375 -0.3371875 21.4534375 -1 23 C-2.32 23 -3.64 23 -5 23 C-4.91240742 20.45679484 -4.80546587 17.91683067 -4.6875 15.375 C-4.66494141 14.66214844 -4.64238281 13.94929687 -4.61914062 13.21484375 C-4.37205112 8.31797892 -3.65381483 3.65381483 0 0 Z " fill="#35272A" transform="translate(120,151)"/>
<path d="M0 0 C1.49640828 4.48922485 0.54749697 8.31585924 0 13 C3.3 13.33 6.6 13.66 10 14 C3.75 17.125 3.75 17.125 0 16 C0.33 18.31 0.66 20.62 1 23 C-4.2519084 26.05343511 -4.2519084 26.05343511 -7.625 25.8125 C-9.87974171 25.04114099 -11.91813812 24.15658993 -14 23 C-13.67 20.69 -13.34 18.38 -13 16 C-12.34 16 -11.68 16 -11 16 C-10.67 11.05 -10.34 6.1 -10 1 C-9.67 1 -9.34 1 -9 1 C-8.67 7.93 -8.34 14.86 -8 22 C-6.68 22 -5.36 22 -4 22 C-3.98541748 21.44014404 -3.97083496 20.88028809 -3.95581055 20.3034668 C-3.88128648 17.76411863 -3.78464419 15.22607922 -3.6875 12.6875 C-3.65366211 11.36588867 -3.65366211 11.36588867 -3.61914062 10.01757812 C-3.58369141 9.17001953 -3.54824219 8.32246094 -3.51171875 7.44921875 C-3.48553467 6.66893311 -3.45935059 5.88864746 -3.43237305 5.0847168 C-2.9068329 2.55078834 -1.9591474 1.63072223 0 0 Z " fill="#37282A" transform="translate(173,110)"/>
<path d="M0 0 C0.66 0.33 1.32 0.66 2 1 C1.67 1.99 1.34 2.98 1 4 C-1.5625 5.1875 -1.5625 5.1875 -4 6 C-4 6.66 -4 7.32 -4 8 C-7.78158798 10.55203574 -11.88501576 12.59800597 -15.9375 14.6875 C-16.53240234 15.00783203 -17.12730469 15.32816406 -17.74023438 15.65820312 C-21.6664858 17.67067517 -24.60461981 18.35565672 -29 18 C-29.33 17.01 -29.66 16.02 -30 15 C-30.66 14.34 -31.32 13.68 -32 13 C-28.37673261 11.7922442 -27.35853631 12.45688872 -24 14 C-23.79375 13.38125 -23.5875 12.7625 -23.375 12.125 C-21.40806635 9.08519345 -19.46037622 8.81420617 -16 8 C-13.125 7.875 -13.125 7.875 -11 8 C-11 7.34 -11 6.68 -11 6 C-10.45730469 5.81824219 -9.91460937 5.63648438 -9.35546875 5.44921875 C-8.64003906 5.19785156 -7.92460937 4.94648438 -7.1875 4.6875 C-6.47980469 4.44386719 -5.77210938 4.20023438 -5.04296875 3.94921875 C-2.85527627 2.93275742 -1.59103282 1.79179406 0 0 Z " fill="#332529" transform="translate(143,178)"/>
<path d="M0 0 C6.27 0 12.54 0 19 0 C20.35439668 2.70879335 20.06501451 5.00933268 20 8 C19.34 7.67 18.68 7.34 18 7 C18 5.35 18 3.7 18 2 C15.69 2.33 13.38 2.66 11 3 C12.98 3 14.96 3 17 3 C17 3.66 17 4.32 17 5 C15.35 5 13.7 5 12 5 C12.33 6.32 12.66 7.64 13 9 C11.865625 9.28875 10.73125 9.5775 9.5625 9.875 C8.386875 10.24625 7.21125 10.6175 6 11 C5.67 11.66 5.34 12.32 5 13 C5 11.68 5 10.36 5 9 C3.68 8.67 2.36 8.34 1 8 C0.67 5.36 0.34 2.72 0 0 Z " fill="#F0A829" transform="translate(138,102)"/>
<path d="M0 0 C0.66 0 1.32 0 2 0 C2 2.64 2 5.28 2 8 C2.66 8 3.32 8 4 8 C7 14.625 7 14.625 7 18 C10.96 18 14.92 18 19 18 C19 18.33 19 18.66 19 19 C16.36 19 13.72 19 11 19 C10.566875 19.8971875 10.566875 19.8971875 10.125 20.8125 C9 23 9 23 7 26 C3.62537285 25.45276317 1.91765 24.9451 -1 23 C-1.1875 20.375 -1.1875 20.375 -1 18 C-0.34 18 0.32 18 1 18 C0.67 12.06 0.34 6.12 0 0 Z " fill="#E19F2C" transform="translate(112,166)"/>
<path d="M0 0 C5.28 0.33 10.56 0.66 16 1 C16 1.99 16 2.98 16 4 C15.34 4 14.68 4 14 4 C13.773125 4.7425 13.54625 5.485 13.3125 6.25 C11.69670814 9.63546867 10.19064508 11.04210415 7 13 C3.6875 13.25 3.6875 13.25 1 13 C1 12.01 1 11.02 1 10 C1.66 10 2.32 10 3 10 C3 9.34 3 8.68 3 8 C2.34 8 1.68 8 1 8 C0.26919734 6.02253397 -0.39421747 4.01927511 -1 2 C-0.67 1.34 -0.34 0.68 0 0 Z " fill="#F4AC26" transform="translate(170,75)"/>
<path d="M0 0 C0.74362793 0.01047363 1.48725586 0.02094727 2.25341797 0.03173828 C3.46191406 0.04140625 3.46191406 0.04140625 4.69482422 0.05126953 C5.95746094 0.07640625 5.95746094 0.07640625 7.24560547 0.10205078 C8.51984375 0.11558594 8.51984375 0.11558594 9.81982422 0.12939453 C11.9202043 0.15299431 14.02043991 0.18886595 16.12060547 0.22705078 C16.92013685 3.51401311 17.21719483 4.9372827 16.12060547 8.22705078 C14.05810547 8.91455078 14.05810547 8.91455078 12.12060547 9.22705078 C12.12060547 8.56705078 12.12060547 7.90705078 12.12060547 7.22705078 C13.11060547 7.22705078 14.10060547 7.22705078 15.12060547 7.22705078 C15.12060547 5.24705078 15.12060547 3.26705078 15.12060547 1.22705078 C10.50060547 1.22705078 5.88060547 1.22705078 1.12060547 1.22705078 C1.45060547 2.87705078 1.78060547 4.52705078 2.12060547 6.22705078 C1.29560547 7.03142578 0.47060547 7.83580078 -0.37939453 8.66455078 C-1.20439453 9.51017578 -2.02939453 10.35580078 -2.87939453 11.22705078 C-2.8254726 14.47743567 -2.8254726 14.47743567 -1.87939453 17.22705078 C-2.53939453 17.22705078 -3.19939453 17.22705078 -3.87939453 17.22705078 C-3.87939453 17.88705078 -3.87939453 18.54705078 -3.87939453 19.22705078 C0.652012 20.1608604 0.652012 20.1608604 5.12060547 19.22705078 C5.45060547 18.23705078 5.78060547 17.24705078 6.12060547 16.22705078 C6.45060547 17.21705078 6.78060547 18.20705078 7.12060547 19.22705078 C5.94482422 20.74658203 5.94482422 20.74658203 4.12060547 22.22705078 C1.64013672 22.30126953 1.64013672 22.30126953 -1.06689453 21.91455078 C-1.96794922 21.79466797 -2.86900391 21.67478516 -3.79736328 21.55126953 C-4.48443359 21.44427734 -5.17150391 21.33728516 -5.87939453 21.22705078 C-6.12336463 14.73473548 -6.04403115 8.42699764 -3.87939453 2.22705078 C-1.87939453 0.22705078 -1.87939453 0.22705078 0 0 Z " fill="#BC8738" transform="translate(178.87939453125,101.77294921875)"/>
<path d="M0 0 C3.88602985 0.57570813 6.11172864 2.41575721 9 5 C12.12475151 9.68712727 11.81188108 14.52349308 11 20 C9.54139303 22.7908779 7.95610868 23.96623311 5 25 C0.42602971 25.581497 -3.61910227 25.46029924 -8 24 C-7.67 23.34 -7.34 22.68 -7 22 C-5.02 22.33 -3.04 22.66 -1 23 C-1 22.67 -1 22.34 -1 22 C0.4540625 21.5359375 0.4540625 21.5359375 1.9375 21.0625 C4.84065792 20.30476658 4.84065792 20.30476658 6 19 C6.43141751 14.14404478 6.58921484 9.27220449 4 5 C1.98264795 3.65589738 1.98264795 3.65589738 0 3 C0 2.01 0 1.02 0 0 Z " fill="#A25C20" transform="translate(215,174)"/>
<path d="M0 0 C0.99 0.33 1.98 0.66 3 1 C3 1.99 3 2.98 3 4 C3.99 4 4.98 4 6 4 C5.67 9.28 5.34 14.56 5 20 C6.32 19.67 7.64 19.34 9 19 C9 19.33 9 19.66 9 20 C12.3 20.33 15.6 20.66 19 21 C18.67 21.66 18.34 22.32 18 23 C14.37 23 10.74 23 7 23 C7 22.34 7 21.68 7 21 C6.01 21 5.02 21 4 21 C3.67 21.66 3.34 22.32 3 23 C2.34 22.67 1.68 22.34 1 22 C1.04125 20.9275 1.0825 19.855 1.125 18.75 C1.0114175 15.34252515 0.78726636 13.79260369 -1 11 C-0.34 11 0.32 11 1 11 C0.67 7.37 0.34 3.74 0 0 Z M10 3 C10.66 3.33 11.32 3.66 12 4 C12.08107583 5.93681161 12.13922475 7.8745934 12.1875 9.8125 C12.23970703 11.43091797 12.23970703 11.43091797 12.29296875 13.08203125 C12 16 12 16 10.48828125 17.88671875 C9.99714844 18.25410156 9.50601563 18.62148438 9 19 C9.16371094 18.46890625 9.32742187 17.9378125 9.49609375 17.390625 C10.11356377 14.46123236 10.09501925 11.74177064 10.0625 8.75 C10.05347656 7.67234375 10.04445312 6.5946875 10.03515625 5.484375 C10.02355469 4.66453125 10.01195312 3.8446875 10 3 Z " fill="#58392A" transform="translate(164,35)"/>
<path d="M0 0 C1.32 0 2.64 0 4 0 C4.06058594 0.63808594 4.12117187 1.27617188 4.18359375 1.93359375 C4.26738281 2.75988281 4.35117188 3.58617188 4.4375 4.4375 C4.51871094 5.26121094 4.59992188 6.08492188 4.68359375 6.93359375 C4.78930815 8.98662025 4.78930815 8.98662025 6 10 C6.04080783 11.99958364 6.04254356 14.00045254 6 16 C3.50907189 17.24546405 2.58919267 16.7767578 0 16 C0 15.34 0 14.68 0 14 C-0.99 14 -1.98 14 -3 14 C-3 13.34 -3 12.68 -3 12 C-2.34 12 -1.68 12 -1 12 C-1.71563266 9.9837767 -1.71563266 9.9837767 -3 8 C-5.05000871 7.19471111 -5.05000871 7.19471111 -7 7 C-7 6.01 -7 5.02 -7 4 C-4.69 3.34 -2.38 2.68 0 2 C0 1.34 0 0.68 0 0 Z " fill="#D37527" transform="translate(135,114)"/>
<path d="M0 0 C3 1 3 1 5 4 C5.1953125 7.13671875 5.1953125 7.13671875 5.125 10.6875 C5.10695312 11.86699219 5.08890625 13.04648438 5.0703125 14.26171875 C5.03550781 15.61716797 5.03550781 15.61716797 5 17 C5.66 17 6.32 17 7 17 C7 17.99 7 18.98 7 20 C6.01 20 5.02 20 4 20 C3.7525 19.21625 3.505 18.4325 3.25 17.625 C1.84610901 14.67682892 0.99324263 14.0975223 -2 13 C-2 12.34 -2 11.68 -2 11 C-2.99 10.67 -3.98 10.34 -5 10 C-5.33 8.02 -5.66 6.04 -6 4 C-4.02 3.67 -2.04 3.34 0 3 C0 2.01 0 1.02 0 0 Z " fill="#DD7A28" transform="translate(141,132)"/>
<path d="M0 0 C0.82638376 2.89234315 1 4.88742431 1 8 C3.475 8.99 3.475 8.99 6 10 C5.67 11.32 5.34 12.64 5 14 C4.34 14 3.68 14 3 14 C2.34 17.63 1.68 21.26 1 25 C-0.32 25 -1.64 25 -3 25 C-3.96070434 22.11788698 -4.10581883 20.30149956 -4.0625 17.3125 C-4.05347656 16.50425781 -4.04445313 15.69601563 -4.03515625 14.86328125 C-4.02355469 14.24839844 -4.01195313 13.63351563 -4 13 C-3.01 12.67 -2.02 12.34 -1 12 C-1.18433594 11.42765625 -1.36867188 10.8553125 -1.55859375 10.265625 C-2.28163726 6.55442821 -1.02067687 3.60238895 0 0 Z " fill="#B9862E" transform="translate(115,99)"/>
<path d="M0 0 C3.15140423 0.34069235 4.60781561 0.58076841 6.8125 2.9375 C8 5 8 5 8 7 C8.66 7 9.32 7 10 7 C12.1875 9.1875 12.1875 9.1875 14 12 C13.75 14.8125 13.75 14.8125 13 17 C10.36290978 16.62408649 9.23044635 16.25129358 7.40234375 14.2578125 C6.91894531 13.55398437 6.43554688 12.85015625 5.9375 12.125 C4.48493378 10.03669525 3.17364781 8.16512771 1.328125 6.41015625 C0 5 0 5 -0.1875 2.3125 C-0.125625 1.549375 -0.06375 0.78625 0 0 Z " fill="#E6A121" transform="translate(198,138)"/>
<path d="M0 0 C0.33 0.66 0.66 1.32 1 2 C0.34 2 -0.32 2 -1 2 C-1.33 3.98 -1.66 5.96 -2 8 C-1.38511719 7.71125 -0.77023438 7.4225 -0.13671875 7.125 C0.67152344 6.75375 1.47976562 6.3825 2.3125 6 C3.11300781 5.62875 3.91351563 5.2575 4.73828125 4.875 C7 4 7 4 10 4 C10 4.99 10 5.98 10 7 C9.34 7 8.68 7 8 7 C8.7763932 10.0745356 8.7763932 10.0745356 11 12 C6.545 13.485 6.545 13.485 2 15 C2 13.68 2 12.36 2 11 C-0.29294488 10.14025199 -0.29294488 10.14025199 -3 10 C-5.33454661 11.83358335 -5.33454661 11.83358335 -7 14 C-6.67 12.35 -6.34 10.7 -6 9 C-5.34 9 -4.68 9 -4 9 C-4 6.36 -4 3.72 -4 1 C-2.68 0.67 -1.36 0.34 0 0 Z " fill="#A86326" transform="translate(124,104)"/>
<path d="M0 0 C0 0.99 0 1.98 0 3 C0.66 3 1.32 3 2 3 C1.64987213 5.59094622 1.26229035 7.5774211 -0.125 9.8125 C-3.00868162 11.63883169 -5.67745793 11.18806842 -9 11 C-9 10.01 -9 9.02 -9 8 C-10.98 7.34 -12.96 6.68 -15 6 C-15.33 4.35 -15.66 2.7 -16 1 C-14.0625 1.3125 -14.0625 1.3125 -12 2 C-11.67 2.99 -11.34 3.98 -11 5 C-8.98491642 5.73323796 -8.98491642 5.73323796 -7 6 C-6.67 5.01 -6.34 4.02 -6 3 C-3.86928565 0.38503239 -3.5167455 0 0 0 Z " fill="#E57A1F" transform="translate(101,100)"/>
<path d="M0 0 C0.515625 0.45375 1.03125 0.9075 1.5625 1.375 C4.57300574 3.38200383 7.50927237 4.12731809 11 5 C11 6.65 11 8.3 11 10 C8.67404054 11.16297973 7.21276769 11.16600691 4.625 11.1875 C3.46871094 11.20876953 3.46871094 11.20876953 2.2890625 11.23046875 C-0.21834888 10.97801607 -1.83261902 10.25193467 -4 9 C-3.67 8.01 -3.34 7.02 -3 6 C-2.01 6 -1.02 6 0 6 C0 4.02 0 2.04 0 0 Z " fill="#E9A72E" transform="translate(210,122)"/>
<path d="M0 0 C1.08667969 0.35964844 1.08667969 0.35964844 2.1953125 0.7265625 C2.5253125 1.7165625 2.8553125 2.7065625 3.1953125 3.7265625 C1.90903539 4.89916861 0.61611467 6.0644908 -0.6796875 7.2265625 C-1.39898437 7.87625 -2.11828125 8.5259375 -2.859375 9.1953125 C-4.8046875 10.7265625 -4.8046875 10.7265625 -6.8046875 10.7265625 C-6.8046875 11.3865625 -6.8046875 12.0465625 -6.8046875 12.7265625 C-8.1246875 12.7265625 -9.4446875 12.7265625 -10.8046875 12.7265625 C-11.5625 10.5 -11.5625 10.5 -11.8046875 7.7265625 C-10.109375 5.453125 -10.109375 5.453125 -7.6796875 3.3515625 C-6.89335937 2.64257812 -6.10703125 1.93359375 -5.296875 1.203125 C-2.8046875 -0.2734375 -2.8046875 -0.2734375 0 0 Z " fill="#D4761F" transform="translate(199.8046875,148.2734375)"/>
<path d="M0 0 C2.97 0.33 5.94 0.66 9 1 C9.33 2.32 9.66 3.64 10 5 C10.515625 5.5775 11.03125 6.155 11.5625 6.75 C13.7433403 10.16348916 13.20006394 12.99872124 13 17 C12.67 16.01 12.34 15.02 12 14 C11.34 14 10.68 14 10 14 C10 13.01 10 12.02 10 11 C9.01 10.67 8.02 10.34 7 10 C7 9.34 7 8.68 7 8 C5.35 7.67 3.7 7.34 2 7 C2 6.34 2 5.68 2 5 C0.02 5.33 -1.96 5.66 -4 6 C-3.67 5.34 -3.34 4.68 -3 4 C-0.9375 3.375 -0.9375 3.375 1 3 C0.67 2.01 0.34 1.02 0 0 Z " fill="#5E3D29" transform="translate(91,89)"/>
<path d="M0 0 C4.875 1.75 4.875 1.75 6 4 C6.27182819 7.66968053 6.45275856 10.15916268 4.6875 13.4375 C3 15 3 15 0 15 C-2.38241252 12.82179427 -3.86040915 11.16182534 -4.25390625 7.88671875 C-4.25041769 5.92265786 -4.13285191 3.95956569 -4 2 C-3.01 2 -2.02 2 -1 2 C-1 4.64 -1 7.28 -1 10 C-0.01 10 0.98 10 2 10 C2 7.69 2 5.38 2 3 C1.34 3 0.68 3 0 3 C0 2.01 0 1.02 0 0 Z " fill="#D4982A" transform="translate(193,83)"/>
<path d="M0 0 C0 0.66 0 1.32 0 2 C0.99 2.33 1.98 2.66 3 3 C2.67 4.98 2.34 6.96 2 9 C-0.31 8.67 -2.62 8.34 -5 8 C-5 10.64 -5 13.28 -5 16 C-5.33 16 -5.66 16 -6 16 C-6.13277344 15.39671875 -6.26554688 14.7934375 -6.40234375 14.171875 C-6.57894531 13.37265625 -6.75554687 12.5734375 -6.9375 11.75 C-7.11152344 10.96109375 -7.28554687 10.1721875 -7.46484375 9.359375 C-7.81098774 7.83330953 -8.19795973 6.31569478 -8.6328125 4.8125 C-9 3 -9 3 -7.9375 1.25 C-5.24828988 -0.48497427 -3.13104437 -0.20873629 0 0 Z " fill="#C26B1F" transform="translate(231,108)"/>
<path d="M0 0 C2.4375 0.25 2.4375 0.25 5 1 C5.66 1.99 6.32 2.98 7 4 C4.69 4 2.38 4 0 4 C-0.33 4.66 -0.66 5.32 -1 6 C0.65 6.33 2.3 6.66 4 7 C4 7.99 4 8.98 4 10 C3.34 10 2.68 10 2 10 C2 10.66 2 11.32 2 12 C1.071875 12.28875 0.14375 12.5775 -0.8125 12.875 C-4.09791667 13.8875 -4.09791667 13.8875 -7 16 C-6.25 10.25 -6.25 10.25 -4 8 C-2.98034573 5.67518826 -1.97940398 3.34205301 -1 1 C-0.67 0.67 -0.34 0.34 0 0 Z " fill="#DC7D24" transform="translate(126,158)"/>
<path d="M0 0 C1.30324219 0.00773437 1.30324219 0.00773437 2.6328125 0.015625 C3.49648437 0.01046875 4.36015625 0.0053125 5.25 0 C9.04865052 0.40234928 11.08572654 1.44952062 13.5078125 4.390625 C15.18509587 8.24837674 14.9706024 11.08075702 14.7578125 15.265625 C9.8078125 15.265625 4.8578125 15.265625 -0.2421875 15.265625 C-0.2421875 14.935625 -0.2421875 14.605625 -0.2421875 14.265625 C3.0578125 13.935625 6.3578125 13.605625 9.7578125 13.265625 C8.4378125 12.605625 7.1178125 11.945625 5.7578125 11.265625 C7.7378125 10.605625 9.7178125 9.945625 11.7578125 9.265625 C11.7578125 8.605625 11.7578125 7.945625 11.7578125 7.265625 C11.0978125 6.935625 10.4378125 6.605625 9.7578125 6.265625 C9.7578125 5.275625 9.7578125 4.285625 9.7578125 3.265625 C8.7678125 3.265625 7.7778125 3.265625 6.7578125 3.265625 C6.7578125 2.605625 6.7578125 1.945625 6.7578125 1.265625 C3.1278125 1.595625 -0.5021875 1.925625 -4.2421875 2.265625 C-2.2421875 0.265625 -2.2421875 0.265625 0 0 Z " fill="#C28B2E" transform="translate(174.2421875,56.734375)"/>
<path d="M0 0 C1.32 0 2.64 0 4 0 C4 0.99 4 1.98 4 3 C5.32 3.33 6.64 3.66 8 4 C7 7 7 7 5 8 C4.67 8.99 4.34 9.98 4 11 C2.68 11 1.36 11 0 11 C0 10.01 0 9.02 0 8 C-0.99 8 -1.98 8 -3 8 C-3.33 6.68 -3.66 5.36 -4 4 C-2.68 3.67 -1.36 3.34 0 3 C0 2.01 0 1.02 0 0 Z " fill="#DC781F" transform="translate(109,86)"/>
<path d="M0 0 C0.33 2.31 0.66 4.62 1 7 C-6.75 8.125 -6.75 8.125 -9 7 C-9 5.02 -9 3.04 -9 1 C-5.64919071 -1.10976881 -3.77897651 -1.0497157 0 0 Z " fill="#F1AA29" transform="translate(149,158)"/>
<path d="M0 0 C2.31 0.66 4.62 1.32 7 2 C7 3.98 7 5.96 7 8 C5.68 8 4.36 8 3 8 C3.33 9.32 3.66 10.64 4 12 C1.03 11.505 1.03 11.505 -2 11 C-1.85892253 9.54119891 -1.71197585 8.08296449 -1.5625 6.625 C-1.48128906 5.81289062 -1.40007812 5.00078125 -1.31640625 4.1640625 C-1 2 -1 2 0 0 Z " fill="#E09E28" transform="translate(117,97)"/>
<path d="M0 0 C0 0.66 0 1.32 0 2 C-3.63 2.33 -7.26 2.66 -11 3 C-7.04 3.33 -3.08 3.66 1 4 C1 4.33 1 4.66 1 5 C-0.41152344 5.07347656 -0.41152344 5.07347656 -1.8515625 5.1484375 C-3.71941406 5.26058594 -3.71941406 5.26058594 -5.625 5.375 C-6.85476562 5.44460937 -8.08453125 5.51421875 -9.3515625 5.5859375 C-12.84569338 5.98248769 -15.70291493 6.82517658 -19 8 C-21.875 8.125 -21.875 8.125 -24 8 C-23.67 7.34 -23.34 6.68 -23 6 C-22.01 6 -21.02 6 -20 6 C-20 5.34 -20 4.68 -20 4 C-13.08856084 0.30318371 -7.68663531 -0.15071834 0 0 Z " fill="#9A5C27" transform="translate(171,171)"/>
<path d="M0 0 C0.66 0 1.32 0 2 0 C2 0.99 2 1.98 2 3 C2.66 3 3.32 3 4 3 C4.304 12.12 4.304 12.12 2 15 C-0.078125 15.59765625 -0.078125 15.59765625 -2 16 C-2.05389087 14.04196493 -2.09274217 12.08351091 -2.125 10.125 C-2.14820313 9.03445312 -2.17140625 7.94390625 -2.1953125 6.8203125 C-2 4 -2 4 0 2 C0 1.34 0 0.68 0 0 Z " fill="#E37D1F" transform="translate(171,39)"/>
<path d="M0 0 C0.66 0.33 1.32 0.66 2 1 C3.05531606 6.15711057 3.12475341 11.20342513 3.0625 16.4375 C3.05798828 17.16904297 3.05347656 17.90058594 3.04882812 18.65429688 C3.03718148 20.43623419 3.01925191 22.21812863 3 24 C0.69 23.67 -1.62 23.34 -4 23 C-3.505 21.515 -3.505 21.515 -3 20 C-2.01 19.67 -1.02 19.34 0 19 C0.04125 17.72125 0.0825 16.4425 0.125 15.125 C0.15980469 14.04605469 0.15980469 14.04605469 0.1953125 12.9453125 C0.18331689 10.76136355 0.18331689 10.76136355 -2 9 C-2.38079379 5.38245897 -1.84651134 3.11598788 0 0 Z " fill="#30242A" transform="translate(160,103)"/>
<path d="M0 0 C1.875 0.3125 1.875 0.3125 4 1 C5.9451 3.91765 6.45276317 5.62537285 7 9 C7 7.68 7 6.36 7 5 C9.97 5.495 9.97 5.495 13 6 C12.67 6.66 12.34 7.32 12 8 C11.01 8 10.02 8 9 8 C8.67 8.99 8.34 9.98 8 11 C8.99 10.67 9.98 10.34 11 10 C10.34 11.32 9.68 12.64 9 14 C8.34 12.68 7.68 11.36 7 10 C3.72226496 10.75150023 3.72226496 10.75150023 2 14 C1.67 12.02 1.34 10.04 1 8 C1.66 8 2.32 8 3 8 C2.505 7.236875 2.01 6.47375 1.5 5.6875 C0 3 0 3 0 0 Z " fill="#CD922F" transform="translate(195,112)"/>
<path d="M0 0 C0.66 0.33 1.32 0.66 2 1 C2.09765625 7.15234375 2.09765625 7.15234375 2 9 C1 10 1 10 -2.0625 10.0625 C-3.031875 10.041875 -4.00125 10.02125 -5 10 C-5 10.66 -5 11.32 -5 12 C-6.65 11.67 -8.3 11.34 -10 11 C-10.33 10.01 -10.66 9.02 -11 8 C-10.34 8 -9.68 8 -9 8 C-8.67 6.68 -8.34 5.36 -8 4 C-6.35 3.67 -4.7 3.34 -3 3 C-3.33 4.98 -3.66 6.96 -4 9 C-2.68 8.67 -1.36 8.34 0 8 C0 5.36 0 2.72 0 0 Z " fill="#DDA02C" transform="translate(159,113)"/>
<path d="M0 0 C0.33 0.66 0.66 1.32 1 2 C0.67 2.99 0.34 3.98 0 5 C-0.66 5 -1.32 5 -2 5 C-1.67 9.29 -1.34 13.58 -1 18 C-0.34 17.67 0.32 17.34 1 17 C1.33 16.01 1.66 15.02 2 14 C4.63829259 15.31914629 4.98263229 16.23857335 6 19 C6.0777346 21.33203812 6.08967728 23.66839059 6 26 C5.34 26 4.68 26 4 26 C4 25.34 4 24.68 4 24 C3.01 23.67 2.02 23.34 1 23 C-3.68128285 18.18496621 -3.44119009 13.54109664 -3.43359375 7.0234375 C-2.96827057 3.77875152 -2.19019088 2.3819052 0 0 Z " fill="#A25C24" transform="translate(160,31)"/>
<path d="M0 0 C0.33 0.66 0.66 1.32 1 2 C0.67 2.66 0.34 3.32 0 4 C-0.66 4 -1.32 4 -2 4 C-1.98839844 4.9178125 -1.97679688 5.835625 -1.96484375 6.78125 C-1.91698507 13.29003027 -1.97099303 19.56870645 -3 26 C-3.33 26 -3.66 26 -4 26 C-4 23.36 -4 20.72 -4 18 C-4.66 18 -5.32 18 -6 18 C-5.67 21.63 -5.34 25.26 -5 29 C-5.66 28.67 -6.32 28.34 -7 28 C-7.65895285 19.03091948 -5.77900436 11.49829459 -3 3 C-2.34 3 -1.68 3 -1 3 C-0.67 2.01 -0.34 1.02 0 0 Z " fill="#A07430" transform="translate(118,148)"/>
<path d="M0 0 C0.33 0 0.66 0 1 0 C1.56968796 12.04784547 1.56968796 12.04784547 -2 16 C-4.1875 17.3125 -4.1875 17.3125 -6 18 C-6 17.34 -6 16.68 -6 16 C-6.66 15.67 -7.32 15.34 -8 15 C-7.360625 14.236875 -6.72125 13.47375 -6.0625 12.6875 C-3.85767219 10.11753287 -3.85767219 10.11753287 -3 7 C-4.98 7 -6.96 7 -9 7 C-8.67 6.34 -8.34 5.68 -8 5 C-5.36 5 -2.72 5 0 5 C0 3.35 0 1.7 0 0 Z " fill="#C18A2C" transform="translate(150,160)"/>
<path d="M0 0 C6.27 0 12.54 0 19 0 C20.35439668 2.70879335 20.06501451 5.00933268 20 8 C19.34 7.67 18.68 7.34 18 7 C18 5.35 18 3.7 18 2 C13.05 2.33 8.1 2.66 3 3 C2.67 4.32 2.34 5.64 2 7 C2.99 7 3.98 7 5 7 C5 7.66 5 8.32 5 9 C3.68 8.67 2.36 8.34 1 8 C0.67 5.36 0.34 2.72 0 0 Z " fill="#A97C39" transform="translate(138,102)"/>
<path d="M0 0 C0 3.3 0 6.6 0 10 C-0.99 10 -1.98 10 -3 10 C-6 6.66666667 -6 6.66666667 -6 4 C-6.66 4 -7.32 4 -8 4 C-8.33 2.68 -8.66 1.36 -9 0 C-5.32431536 -0.91892116 -3.83619425 -0.95904856 0 0 Z " fill="#825F32" transform="translate(214,138)"/>
<path d="M0 0 C0.66 0.33 1.32 0.66 2 1 C2 3.64 2 6.28 2 9 C2.66 9 3.32 9 4 9 C3.67 9.66 3.34 10.32 3 11 C2.34 10.67 1.68 10.34 1 10 C0.67 11.32 0.34 12.64 0 14 C-0.66 14 -1.32 14 -2 14 C-3.32229189 11.35541621 -3.09677194 9.32238699 -3.0625 6.375 C-3.05347656 5.37210938 -3.04445312 4.36921875 -3.03515625 3.3359375 C-3.02355469 2.56507812 -3.01195312 1.79421875 -3 1 C-2.01 0.67 -1.02 0.34 0 0 Z " fill="#DC7923" transform="translate(161,35)"/>
<path d="M0 0 C0 1.32 0 2.64 0 4 C0.99 4 1.98 4 3 4 C3 4.99 3 5.98 3 7 C2.01 7 1.02 7 0 7 C0 8.32 0 9.64 0 11 C-1.32 10.67 -2.64 10.34 -4 10 C-4 9.01 -4 8.02 -4 7 C-4.99 7 -5.98 7 -7 7 C-7 4 -7 4 -5.1875 1.8125 C-3 0 -3 0 0 0 Z " fill="#C97223" transform="translate(190,129)"/>
<path d="M0 0 C3.96 0 7.92 0 12 0 C12.33 1.98 12.66 3.96 13 6 C11.35 6 9.7 6 8 6 C8 6.66 8 7.32 8 8 C6.68 7.34 5.36 6.68 4 6 C4 4.35 4 2.7 4 1 C2.68 0.67 1.36 0.34 0 0 Z " fill="#F6AB29" transform="translate(147,77)"/>
<path d="M0 0 C3.96618775 2.86446893 6.62294981 5.70302465 9 10 C8.67 10.99 8.34 11.98 8 13 C6.68 13 5.36 13 4 13 C1 8.92857143 1 8.92857143 1 6 C0.34 6 -0.32 6 -1 6 C-0.67 4.02 -0.34 2.04 0 0 Z " fill="#6A4926" transform="translate(178,159)"/>
<path d="M0 0 C-1.32 0.33 -2.64 0.66 -4 1 C-4.2165625 1.86625 -4.2165625 1.86625 -4.4375 2.75 C-4.78804375 4.15217501 -5.15952756 5.54948382 -5.5625 6.9375 C-6.07066883 9.33315307 -6.06783326 11.55800267 -6 14 C-3.36 14 -0.72 14 2 14 C2 14.33 2 14.66 2 15 C-6.18462594 15.61770762 -6.18462594 15.61770762 -9.0625 13.4375 C-10.36454848 10.05217395 -10.4495791 7.59663278 -10 4 C-7.21083461 -0.18374808 -4.85662887 -0.44151172 0 0 Z " fill="#D19630" transform="translate(209,171)"/>
<path d="M0 0 C3.87705056 0.57437786 6.11543577 2.42728055 9 5 C10.38226016 7.76452033 10.09525387 10.0461363 10.0625 13.125 C10.05347656 14.22070312 10.04445312 15.31640625 10.03515625 16.4453125 C10.02355469 17.28835937 10.01195312 18.13140625 10 19 C9.34 19 8.68 19 8 19 C7.98582031 18.33613281 7.97164062 17.67226562 7.95703125 16.98828125 C7.63909203 10.99880353 7.63909203 10.99880353 4.5625 5.9375 C2.18162477 4.01468224 2.18162477 4.01468224 0 3 C0 2.01 0 1.02 0 0 Z " fill="#C36B20" transform="translate(215,174)"/>
<path d="M0 0 C0 0.66 0 1.32 0 2 C1.65 2.33 3.3 2.66 5 3 C5.33 4.32 5.66 5.64 6 7 C5.34 7 4.68 7 4 7 C4 7.66 4 8.32 4 9 C4.99 9 5.98 9 7 9 C6.67 9.99 6.34 10.98 6 12 C6 11.34 6 10.68 6 10 C4.68 10.33 3.36 10.66 2 11 C1.67 10.01 1.34 9.02 1 8 C1.66 8 2.32 8 3 8 C3 7.34 3 6.68 3 6 C1.68 6 0.36 6 -1 6 C-1 5.34 -1 4.68 -1 4 C-2.32 4 -3.64 4 -5 4 C-5 3.01 -5 2.02 -5 1 C-2 0 -2 0 0 0 Z " fill="#C36E2B" transform="translate(128,119)"/>
<path d="M0 0 C0.99 0 1.98 0 3 0 C3 0.99 3 1.98 3 3 C3.99 3.33 4.98 3.66 6 4 C6 4.99 6 5.98 6 7 C5.01 7 4.02 7 3 7 C3 7.99 3 8.98 3 10 C1.68 9.67 0.36 9.34 -1 9 C-1 8.01 -1 7.02 -1 6 C-1.99 6 -2.98 6 -4 6 C-3.67 5.01 -3.34 4.02 -3 3 C-2.34 3 -1.68 3 -1 3 C-0.67 2.01 -0.34 1.02 0 0 Z " fill="#BF722A" transform="translate(103,113)"/>
<path d="M0 0 C0.33 0 0.66 0 1 0 C1.01458252 0.62567871 1.02916504 1.25135742 1.04418945 1.89599609 C1.11852804 4.72296402 1.21523234 7.54873208 1.3125 10.375 C1.33505859 11.35984375 1.35761719 12.3446875 1.38085938 13.359375 C1.41630859 14.30039063 1.45175781 15.24140625 1.48828125 16.2109375 C1.51446533 17.08024902 1.54064941 17.94956055 1.56762695 18.84521484 C1.81345218 21.38600027 1.81345218 21.38600027 5 23 C5 23.66 5 24.32 5 25 C1.65626525 24.44271087 -1.03312999 23.64826111 -4 22 C-3.67 19.69 -3.34 17.38 -3 15 C-2.34 15 -1.68 15 -1 15 C-0.67 10.05 -0.34 5.1 0 0 Z " fill="#412E2B" transform="translate(163,111)"/>
<path d="M0 0 C2 2 2 2 2.125 4.625 C2.08375 5.40875 2.0425 6.1925 2 7 C-0.64 7 -3.28 7 -6 7 C-6 6.34 -6 5.68 -6 5 C-5.34 5 -4.68 5 -4 5 C-4 4.01 -4 3.02 -4 2 C-6.31 2 -8.62 2 -11 2 C-10.67 1.34 -10.34 0.68 -10 0 C-6.37666845 -1.10712909 -3.62464788 -1.07759802 0 0 Z " fill="#D99B2C" transform="translate(130,146)"/>
<path d="M0 0 C2.625 0.375 2.625 0.375 5 1 C5.33 1.99 5.66 2.98 6 4 C5.67 4.66 5.34 5.32 5 6 C5 7.32 5 8.64 5 10 C4.34 10 3.68 10 3 10 C3 9.34 3 8.68 3 8 C1.35 7.67 -0.3 7.34 -2 7 C-2.125 4.625 -2.125 4.625 -2 2 C-1.34 1.34 -0.68 0.68 0 0 Z " fill="#F3AC24" transform="translate(218,89)"/>
<path d="M0 0 C0.99 0 1.98 0 3 0 C3 4.29 3 8.58 3 13 C1.68 12.67 0.36 12.34 -1 12 C-1.02687279 10.18757948 -1.04633715 8.37504767 -1.0625 6.5625 C-1.07410156 5.55316406 -1.08570313 4.54382813 -1.09765625 3.50390625 C-1 1 -1 1 0 0 Z " fill="#CE7829" transform="translate(165,144)"/>
<path d="M0 0 C1.65 0.33 3.3 0.66 5 1 C4.34 5.29 3.68 9.58 3 14 C2.67 14 2.34 14 2 14 C1.731875 13.05125 1.46375 12.1025 1.1875 11.125 C0.25013412 7.74732727 0.25013412 7.74732727 -3 6 C-2.34 6 -1.68 6 -1 6 C-0.67 4.02 -0.34 2.04 0 0 Z " fill="#CC7312" transform="translate(208,91)"/>
<path d="M0 0 C0 0.99 0 1.98 0 3 C-1.98 3 -3.96 3 -6 3 C-6.33 4.32 -6.66 5.64 -7 7 C-7.99 7 -8.98 7 -10 7 C-10.33 4.69 -10.66 2.38 -11 0 C-7.18243176 -1.37432457 -3.92744671 -0.67975039 0 0 Z " fill="#E3A62D" transform="translate(213,85)"/>
<path d="M0 0 C0.66 0 1.32 0 2 0 C2 0.66 2 1.32 2 2 C5.96 2 9.92 2 14 2 C14 2.33 14 2.66 14 3 C11.36 3 8.72 3 6 3 C5.566875 3.9590625 5.566875 3.9590625 5.125 4.9375 C4 7 4 7 2 8 C0.32345271 7.72057545 -1.34608154 7.39171753 -3 7 C-2.01 4.69 -1.02 2.38 0 0 Z " fill="#F5AB29" transform="translate(117,182)"/>
<path d="M0 0 C0.33 0.66 0.66 1.32 1 2 C0.0625 4.125 0.0625 4.125 -1 6 C0.32 6 1.64 6 3 6 C3 6.66 3 7.32 3 8 C1.68 8 0.36 8 -1 8 C-1.144375 8.928125 -1.28875 9.85625 -1.4375 10.8125 C-2 14 -2 14 -3 17 C-4.32 16.34 -5.64 15.68 -7 15 C-6.67 14.34 -6.34 13.68 -6 13 C-5.01 13 -4.02 13 -3 13 C-2.67 11.02 -2.34 9.04 -2 7 C-2.66 7 -3.32 7 -4 7 C-4.33 5.68 -4.66 4.36 -5 3 C-4.01 3.33 -3.02 3.66 -2 4 C-1.34 2.68 -0.68 1.36 0 0 Z " fill="#C68A2E" transform="translate(169,59)"/>
<path d="M0 0 C0.99 0.33 1.98 0.66 3 1 C3 1.99 3 2.98 3 4 C8.445 3.505 8.445 3.505 14 3 C14 3.66 14 4.32 14 5 C13.01 5 12.02 5 11 5 C11 5.66 11 6.32 11 7 C9.54207116 7.05399736 8.08357288 7.09279177 6.625 7.125 C5.81289062 7.14820313 5.00078125 7.17140625 4.1640625 7.1953125 C2 7 2 7 0 5 C-0.125 2.375 -0.125 2.375 0 0 Z " fill="#C5701D" transform="translate(111,192)"/>
<path d="M0 0 C0.33 0.66 0.66 1.32 1 2 C0.34 2 -0.32 2 -1 2 C-1 2.66 -1 3.32 -1 4 C-0.01 4 0.98 4 2 4 C2.66 5.98 3.32 7.96 4 10 C1.625 10.625 1.625 10.625 -1 11 C-3 9 -3 9 -3.3125 6.0625 C-3 3 -3 3 -1.5 1.125 C-1.005 0.75375 -0.51 0.3825 0 0 Z " fill="#D89832" transform="translate(157,141)"/>
<path d="M0 0 C0.66 0 1.32 0 2 0 C2 0.66 2 1.32 2 2 C3.32 2.33 4.64 2.66 6 3 C5.67 3.99 5.34 4.98 5 6 C4.34 6 3.68 6 3 6 C3 6.66 3 7.32 3 8 C2.01 8 1.02 8 0 8 C0 7.34 0 6.68 0 6 C-0.99 6 -1.98 6 -3 6 C-3 4.68 -3 3.36 -3 2 C-2.01 2 -1.02 2 0 2 C0 1.34 0 0.68 0 0 Z " fill="#AC7E33" transform="translate(159,160)"/>
<path d="M0 0 C3.465 1.485 3.465 1.485 7 3 C7 5.31 7 7.62 7 10 C5.68 9.67 4.36 9.34 3 9 C2.67 7.68 2.34 6.36 2 5 C1.34 5 0.68 5 0 5 C0 3.35 0 1.7 0 0 Z " fill="#F3AA2E" transform="translate(203,118)"/>
<path d="M0 0 C4.29 0 8.58 0 13 0 C13 0.99 13 1.98 13 3 C12.34 3 11.68 3 11 3 C10.79375 3.7425 10.5875 4.485 10.375 5.25 C8.60384411 8.79231177 6.36572049 10.02446841 3 12 C3.3125 9.625 3.3125 9.625 4 7 C4.99 6.34 5.98 5.68 7 5 C7.66 4.01 8.32 3.02 9 2 C6.03 1.67 3.06 1.34 0 1 C0 0.67 0 0.34 0 0 Z " fill="#DB9A2A" transform="translate(173,76)"/>
<path d="M0 0 C0.66 0.33 1.32 0.66 2 1 C1.28972656 1.69867188 0.57945312 2.39734375 -0.15234375 3.1171875 C-1.07144531 4.02726563 -1.99054688 4.93734375 -2.9375 5.875 C-3.85402344 6.77992188 -4.77054688 7.68484375 -5.71484375 8.6171875 C-8.01187627 10.77682255 -8.01187627 10.77682255 -9 13 C-11.62187494 11.95125002 -12.79371361 11.35068687 -14.25 8.875 C-14.4975 8.25625 -14.745 7.6375 -15 7 C-14.34 6.34 -13.68 5.68 -13 5 C-12.67 6.32 -12.34 7.64 -12 9 C-10.68 9 -9.36 9 -8 9 C-8 8.34 -8 7.68 -8 7 C-6.25 5.2734375 -6.25 5.2734375 -4 3.375 C-3.2575 2.74335938 -2.515 2.11171875 -1.75 1.4609375 C-1.1725 0.97882813 -0.595 0.49671875 0 0 Z " fill="#422C29" transform="translate(201,152)"/>
<path d="M0 0 C1.65 0.33 3.3 0.66 5 1 C5.1953125 7.0546875 5.1953125 7.0546875 5 9 C4.34 9.66 3.68 10.32 3 11 C0.875 10.625 0.875 10.625 -1 10 C-1 9.34 -1 8.68 -1 8 C-0.01 8 0.98 8 2 8 C2 6.35 2 4.7 2 3 C1.34 3 0.68 3 0 3 C0 2.01 0 1.02 0 0 Z " fill="#EEA82E" transform="translate(173,126)"/>
<path d="M0 0 C0.66 0 1.32 0 2 0 C3.44207941 2.88415883 3.09394887 5.41721528 3.0625 8.625 C3.05347656 9.81351563 3.04445312 11.00203125 3.03515625 12.2265625 C3.02355469 13.14179688 3.01195312 14.05703125 3 15 C2.01 15 1.02 15 0 15 C0 10.05 0 5.1 0 0 Z " fill="#D57A2C" transform="translate(165,118)"/>
<path d="M0 0 C1.2375 0.1546875 1.2375 0.1546875 2.5 0.3125 C4.5 3.3125 4.5 3.3125 4.5 6.3125 C1.86 6.3125 -0.78 6.3125 -3.5 6.3125 C-4.125 4.4375 -4.125 4.4375 -4.5 2.3125 C-2.5 0.3125 -2.5 0.3125 0 0 Z " fill="#EFA72B" transform="translate(219.5,111.6875)"/>
<path d="M0 0 C4.95 0 9.9 0 15 0 C15.33 1.32 15.66 2.64 16 4 C15.34 4 14.68 4 14 4 C14 3.01 14 2.02 14 1 C11.36 1.33 8.72 1.66 6 2 C6.33 3.65 6.66 5.3 7 7 C6.01 7 5.02 7 4 7 C0 2.65714286 0 2.65714286 0 0 Z " fill="#D0952B" transform="translate(145,76)"/>
<path d="M0 0 C3.875 0.875 3.875 0.875 5 2 C5.04063832 3.66617115 5.042721 5.33388095 5 7 C5.66 7 6.32 7 7 7 C7 7.66 7 8.32 7 9 C5.68 9 4.36 9 3 9 C2.67 8.01 2.34 7.02 2 6 C2 8.31 2 10.62 2 13 C0 11 0 11 -0.1953125 8.3984375 C-0.17210937 7.40070313 -0.14890625 6.40296875 -0.125 5.375 C-0.10695312 4.37210937 -0.08890625 3.36921875 -0.0703125 2.3359375 C-0.04710937 1.56507812 -0.02390625 0.79421875 0 0 Z " fill="#D89A2D" transform="translate(205,98)"/>
<path d="M0 0 C2.00720923 0.28674418 4.0085944 0.61866701 6 1 C5.0409375 1.433125 5.0409375 1.433125 4.0625 1.875 C1.84793921 2.82823451 1.84793921 2.82823451 1 5 C1.99 5.66 2.98 6.32 4 7 C3.34 7 2.68 7 2 7 C2.33 9.97 2.66 12.94 3 16 C2.34 16 1.68 16 1 16 C0.67 13.36 0.34 10.72 0 8 C-0.66 8 -1.32 8 -2 8 C-1.125 1.125 -1.125 1.125 0 0 Z " fill="#C06B27" transform="translate(162,28)"/>
<path d="M0 0 C-0.33 0.66 -0.66 1.32 -1 2 C-1.07065617 4.04055005 -1.08421976 6.08334257 -1.0625 8.125 C-1.04896484 9.76855469 -1.04896484 9.76855469 -1.03515625 11.4453125 C-1.02355469 12.28835937 -1.01195312 13.13140625 -1 14 C-1.66 14 -2.32 14 -3 14 C-3 9.71 -3 5.42 -3 1 C-4.32 1.33 -5.64 1.66 -7 2 C-7.66 1.34 -8.32 0.68 -9 0 C-5.52176885 -1.15941038 -3.54104422 -0.70820884 0 0 Z " fill="#65472D" transform="translate(171,143)"/>
<path d="M0 0 C2 2 2 2 2.1953125 3.9453125 C2.13020833 5.96354167 2.06510417 7.98177083 2 10 C1.67 9.01 1.34 8.02 1 7 C0.34 7 -0.32 7 -1 7 C-1 6.01 -1 5.02 -1 4 C-1.99 3.67 -2.98 3.34 -4 3 C-4 2.34 -4 1.68 -4 1 C-5.32 0.67 -6.64 0.34 -8 0 C-4.96083486 -0.97687451 -3.01586454 -1.105817 0 0 Z " fill="#955525" transform="translate(102,96)"/>
<path d="M0 0 C0.33 1.65 0.66 3.3 1 5 C-1.64 5 -4.28 5 -7 5 C-7.33 3.68 -7.66 2.36 -8 1 C-5.29120665 -0.35439668 -2.99066732 -0.06501451 0 0 Z " fill="#EFAD23" transform="translate(210,180)"/>
<path d="M0 0 C0.99 0.66 1.98 1.32 3 2 C2.67 4.31 2.34 6.62 2 9 C0.02 9.33 -1.96 9.66 -4 10 C-3.67 7.69 -3.34 5.38 -3 3 C-3.99 2.67 -4.98 2.34 -6 2 C-4.68 2 -3.36 2 -2 2 C-1.67 3.98 -1.34 5.96 -1 8 C-0.34 8 0.32 8 1 8 C0.67 5.36 0.34 2.72 0 0 Z " fill="#B98434" transform="translate(177,142)"/>
<path d="M0 0 C1 2 1 2 0.5 4.375 C-0.02305988 7.12106437 -0.21376822 8.48576584 1 11 C3.49034386 12.29660434 3.49034386 12.29660434 6 13 C6 13.99 6 14.98 6 16 C3.03 15.505 3.03 15.505 0 15 C-1.58476785 10.83998439 -2.39630501 7.45843134 -2 3 C-1.34 2.01 -0.68 1.02 0 0 Z " fill="#AB652C" transform="translate(86,95)"/>
<path d="M0 0 C0.66 0 1.32 0 2 0 C2 0.99 2 1.98 2 3 C2.66 3 3.32 3 4 3 C3.64987213 5.59094622 3.26229035 7.5774211 1.875 9.8125 C-1.00868162 11.63883169 -3.67745793 11.18806842 -7 11 C-7 10.67 -7 10.34 -7 10 C-5.02 10 -3.04 10 -1 10 C-1.020625 8.72125 -1.04125 7.4425 -1.0625 6.125 C-1.125 2.25 -1.125 2.25 0 0 Z " fill="#D47521" transform="translate(99,100)"/>
<path d="M0 0 C0 0.66 0 1.32 0 2 C-1.32 2.33 -2.64 2.66 -4 3 C-4 3.66 -4 4.32 -4 5 C-9.41176471 9 -9.41176471 9 -12 9 C-11.32883374 6.31533497 -10.64175095 4.49474888 -8.4140625 2.77734375 C-5.4785209 1.04946167 -3.44242349 0 0 0 Z " fill="#CE721F" transform="translate(152,178)"/>
<path d="M0 0 C0.99 0 1.98 0 3 0 C3.66 2.31 4.32 4.62 5 7 C2.36 7.66 -0.28 8.32 -3 9 C-2.67 7.35 -2.34 5.7 -2 4 C-1.01 3.67 -0.02 3.34 1 3 C0.67 2.01 0.34 1.02 0 0 Z " fill="#AA6D2A" transform="translate(239,88)"/>
<path d="M0 0 C6.47556391 0.61090226 6.47556391 0.61090226 8.9375 2.4375 C10 4 10 4 10 6 C8.68 6.33 7.36 6.66 6 7 C6 6.01 6 5.02 6 4 C3.69 3.67 1.38 3.34 -1 3 C-0.67 2.01 -0.34 1.02 0 0 Z " fill="#E47B20" transform="translate(126,161)"/>
<path d="M0 0 C2.375 0.25 2.375 0.25 5 1 C6.3125 3.0625 6.3125 3.0625 7 5 C5.68 5.99 4.36 6.98 3 8 C0.9375 6.25 0.9375 6.25 -1 4 C-0.75 1.75 -0.75 1.75 0 0 Z " fill="#D1962F" transform="translate(178,154)"/>
<path d="M0 0 C0.66 0 1.32 0 2 0 C2 2.97 2 5.94 2 9 C2.66 9 3.32 9 4 9 C4 9.99 4 10.98 4 12 C3.01 12 2.02 12 1 12 C0.7525 11.236875 0.505 10.47375 0.25 9.6875 C-1.10995558 6.7635955 -2.31585826 5.69995644 -5 4 C-4.0409375 3.8453125 -4.0409375 3.8453125 -3.0625 3.6875 C-2.381875 3.460625 -1.70125 3.23375 -1 3 C-0.67 2.01 -0.34 1.02 0 0 Z " fill="#B56A30" transform="translate(144,140)"/>
<path d="M0 0 C0.66 0 1.32 0 2 0 C2 0.66 2 1.32 2 2 C3.32 2.33 4.64 2.66 6 3 C5.67 4.32 5.34 5.64 5 7 C3.35 7.33 1.7 7.66 0 8 C0 5.36 0 2.72 0 0 Z " fill="#DD7C1A" transform="translate(226,116)"/>
<path d="M0 0 C0.80824219 0.11085938 1.61648437 0.22171875 2.44921875 0.3359375 C3.37154297 0.47902344 3.37154297 0.47902344 4.3125 0.625 C4.3125 1.285 4.3125 1.945 4.3125 2.625 C5.3025 2.955 6.2925 3.285 7.3125 3.625 C6.6525 3.625 5.9925 3.625 5.3125 3.625 C4.9825 4.615 4.6525 5.605 4.3125 6.625 C3.36375 6.604375 2.415 6.58375 1.4375 6.5625 C-1.59416283 6.39948174 -1.59416283 6.39948174 -3.6875 7.625 C-3.6875 5.975 -3.6875 4.325 -3.6875 2.625 C-3.3575 3.285 -3.0275 3.945 -2.6875 4.625 C-0.7075 4.625 1.2725 4.625 3.3125 4.625 C3.3125 3.635 3.3125 2.645 3.3125 1.625 C-0.3175 1.625 -3.9475 1.625 -7.6875 1.625 C-4.33422361 -0.61051759 -3.78006343 -0.54783528 0 0 Z " fill="#BD8229" transform="translate(209.6875,83.375)"/>
<path d="M0 0 C2.4375 0.25 2.4375 0.25 5 1 C5.66 1.99 6.32 2.98 7 4 C4.69 4 2.38 4 0 4 C-0.433125 4.94875 -0.86625 5.8975 -1.3125 6.875 C-3 10 -3 10 -6 12 C-5.731875 11.484375 -5.46375 10.96875 -5.1875 10.4375 C-4.20114111 8.41286859 -3.30853953 6.38762358 -2.4375 4.3125 C-1 1 -1 1 0 0 Z " fill="#AC632A" transform="translate(126,158)"/>
<path d="M0 0 C2.31 0 4.62 0 7 0 C7.33 1.65 7.66 3.3 8 5 C6.68 5.33 5.36 5.66 4 6 C0 1.125 0 1.125 0 0 Z " fill="#DC9F2C" transform="translate(204,149)"/>
<path d="M0 0 C1.08861328 0.36931641 1.08861328 0.36931641 2.19921875 0.74609375 C2.52921875 1.73609375 2.85921875 2.72609375 3.19921875 3.74609375 C2.53921875 3.74609375 1.87921875 3.74609375 1.19921875 3.74609375 C1.19921875 3.08609375 1.19921875 2.42609375 1.19921875 1.74609375 C0.29171875 2.36484375 -0.61578125 2.98359375 -1.55078125 3.62109375 C-7.85960478 7.74609375 -7.85960478 7.74609375 -11.80078125 7.74609375 C-10.42262419 6.37394173 -9.02248974 5.02383608 -7.61328125 3.68359375 C-6.83597656 2.92949219 -6.05867187 2.17539063 -5.2578125 1.3984375 C-2.80078125 -0.25390625 -2.80078125 -0.25390625 0 0 Z " fill="#BA6724" transform="translate(199.80078125,148.25390625)"/>
<path d="M0 0 C0.5775 0.37125 1.155 0.7425 1.75 1.125 C1.75 1.785 1.75 2.445 1.75 3.125 C-0.23 3.455 -2.21 3.785 -4.25 4.125 C-4.25 4.785 -4.25 5.445 -4.25 6.125 C-5.57 5.795 -6.89 5.465 -8.25 5.125 C-7.26 5.125 -6.27 5.125 -5.25 5.125 C-6.9 4.795 -8.55 4.465 -10.25 4.125 C-3.34459459 -1.30067568 -3.34459459 -1.30067568 0 0 Z " fill="#A86029" transform="translate(130.25,191.875)"/>
<path d="M0 0 C4.62 0 9.24 0 14 0 C14 0.66 14 1.32 14 2 C14.99 2.33 15.98 2.66 17 3 C11.06 2.67 5.12 2.34 -1 2 C-0.67 1.34 -0.34 0.68 0 0 Z " fill="#D27621" transform="translate(160,173)"/>
<path d="M0 0 C0.33 0.66 0.66 1.32 1 2 C0.01 2.33 -0.98 2.66 -2 3 C-2 2.34 -2 1.68 -2 1 C-1.34 0.67 -0.68 0.34 0 0 Z M0 4 C0 5.98 0 7.96 0 10 C-1.32 9.67 -2.64 9.34 -4 9 C-4 7.68 -4 6.36 -4 5 C-5.32 4.67 -6.64 4.34 -8 4 C-4.71023192 2.90341064 -3.28696233 3.20046862 0 4 Z " fill="#674B33" transform="translate(176,88)"/>
<path d="M0 0 C0.33 0 0.66 0 1 0 C1 2.31 1 4.62 1 7 C2.65 7 4.3 7 6 7 C6 7.99 6 8.98 6 10 C2.62537285 9.45276317 0.91765 8.9451 -2 7 C-2.1875 4.375 -2.1875 4.375 -2 2 C-1.34 2 -0.68 2 0 2 C0 1.34 0 0.68 0 0 Z " fill="#C99234" transform="translate(113,182)"/>
<path d="M0 0 C0.66 0 1.32 0 2 0 C2 1.98 2 3.96 2 6 C1.01 6.33 0.02 6.66 -1 7 C-0.67 10.63 -0.34 14.26 0 18 C-0.66 17.67 -1.32 17.34 -2 17 C-2.3690205 5.47835991 -2.3690205 5.47835991 0 0 Z " fill="#BE8A32" transform="translate(113,159)"/>
<path d="M0 0 C1.875 0.3125 1.875 0.3125 4 1 C6 4 6 4 6 8 C4.35 8.33 2.7 8.66 1 9 C1.66 8.67 2.32 8.34 3 8 C2.505 7.236875 2.01 6.47375 1.5 5.6875 C0 3 0 3 0 0 Z " fill="#9F6027" transform="translate(195,112)"/>
<path d="M0 0 C0.33 0.66 0.66 1.32 1 2 C0.34 2 -0.32 2 -1 2 C-1.33 3.98 -1.66 5.96 -2 8 C-1.01 8.33 -0.02 8.66 1 9 C0.34 9 -0.32 9 -1 9 C-1.33 9.66 -1.66 10.32 -2 11 C-2.66 11 -3.32 11 -4 11 C-5.62514468 12.45833358 -5.62514468 12.45833358 -7 14 C-6.67 12.35 -6.34 10.7 -6 9 C-5.34 9 -4.68 9 -4 9 C-4 6.36 -4 3.72 -4 1 C-2.68 0.67 -1.36 0.34 0 0 Z " fill="#63482D" transform="translate(124,104)"/>
<path d="M0 0 C0.66 0 1.32 0 2 0 C2.66 1.98 3.32 3.96 4 6 C3.34 6 2.68 6 2 6 C2 6.99 2 7.98 2 9 C0 9 0 9 -1.625 7.5 C-2.07875 7.005 -2.5325 6.51 -3 6 C-2.67 5.01 -2.34 4.02 -2 3 C-1.34 3 -0.68 3 0 3 C0 2.01 0 1.02 0 0 Z " fill="#A7662A" transform="translate(256,89)"/>
<path d="M0 0 C0.66 0.33 1.32 0.66 2 1 C1.67 1.99 1.34 2.98 1 4 C-1.5625 5.1875 -1.5625 5.1875 -4 6 C-4 6.66 -4 7.32 -4 8 C-6.31 7.67 -8.62 7.34 -11 7 C-10.443125 6.731875 -9.88625 6.46375 -9.3125 6.1875 C-5.87710021 4.42337578 -2.74206894 2.74206894 0 0 Z " fill="#4D3428" transform="translate(143,178)"/>
<path d="M0 0 C2.97 0.495 2.97 0.495 6 1 C6 2.98 6 4.96 6 7 C3.53199953 5.84826645 1.95216435 4.95216435 0 3 C0 2.01 0 1.02 0 0 Z " fill="#F5A823" transform="translate(118,98)"/>
<path d="M0 0 C0.66 0.33 1.32 0.66 2 1 C2 1.66 2 2.32 2 3 C2.99 3 3.98 3 5 3 C5 4.65 5 6.3 5 8 C3.35 7.67 1.7 7.34 0 7 C-1.125 2.25 -1.125 2.25 0 0 Z " fill="#B0662C" transform="translate(140,91)"/>
<path d="M0 0 C2.5625 0.1875 2.5625 0.1875 4.5625 2.1875 C4.6875 4.8125 4.6875 4.8125 4.5625 7.1875 C3.5725 6.8575 2.5825 6.5275 1.5625 6.1875 C1.5625 5.1975 1.5625 4.2075 1.5625 3.1875 C0.2425 2.8575 -1.0775 2.5275 -2.4375 2.1875 C-3.0975 3.5075 -3.7575 4.8275 -4.4375 6.1875 C-3.3735 0.2595 -3.3735 0.2595 0 0 Z " fill="#613F24" transform="translate(210.4375,88.8125)"/>
<path d="M0 0 C0.99 0.33 1.98 0.66 3 1 C2.34 1 1.68 1 1 1 C1 1.99 1 2.98 1 4 C1.66 4 2.32 4 3 4 C3 6.31 3 8.62 3 11 C2.01 11 1.02 11 0 11 C0 8.36 0 5.72 0 3 C-0.66 2.67 -1.32 2.34 -2 2 C-1.34 1.34 -0.68 0.68 0 0 Z " fill="#654728" transform="translate(192,82)"/>
<path d="M0 0 C1.32 0 2.64 0 4 0 C3.67 0.99 3.34 1.98 3 3 C3 2.34 3 1.68 3 1 C2.34 1 1.68 1 1 1 C1 1.99 1 2.98 1 4 C0.01 4.495 0.01 4.495 -1 5 C-0.34 5.66 0.32 6.32 1 7 C1 7.99 1 8.98 1 10 C1.99 10.33 2.98 10.66 4 11 C2.68 11 1.36 11 0 11 C0 10.01 0 9.02 0 8 C-0.99 8 -1.98 8 -3 8 C-3.33 6.68 -3.66 5.36 -4 4 C-2.68 3.67 -1.36 3.34 0 3 C0 2.01 0 1.02 0 0 Z " fill="#7F502C" transform="translate(109,86)"/>
<path d="M0 0 C2.0625 0.4375 2.0625 0.4375 4 1 C4 2.65 4 4.3 4 6 C2.35 5.67 0.7 5.34 -1 5 C-1 1 -1 1 0 0 Z " fill="#482F28" transform="translate(229,111)"/>
<path d="M0 0 C1.65 0.33 3.3 0.66 5 1 C4.67 2.65 4.34 4.3 4 6 C2.35 6 0.7 6 -1 6 C-0.67 4.02 -0.34 2.04 0 0 Z " fill="#BB6A1B" transform="translate(227,94)"/>
<path d="M0 0 C0.99 0.99 1.98 1.98 3 3 C-0.63 2.67 -4.26 2.34 -8 2 C-8.33 2.99 -8.66 3.98 -9 5 C-11.0625 5.6875 -11.0625 5.6875 -13 6 C-11.9958588 3.2614331 -11.33822766 2.18790425 -8.75 0.75 C-5.63399541 -0.09981943 -3.21441517 -0.34939295 0 0 Z " fill="#B7822D" transform="translate(158,56)"/>
<path d="M0 0 C0.99 0 1.98 0 3 0 C2.67 3.63 2.34 7.26 2 11 C1.34 11 0.68 11 0 11 C0 7.37 0 3.74 0 0 Z " fill="#F1AC2A" transform="translate(113,113)"/>
<path d="M0 0 C0.75 1.75 0.75 1.75 1 4 C-0.875 6.125 -0.875 6.125 -3 8 C-3.33 8.66 -3.66 9.32 -4 10 C-4.66 10 -5.32 10 -6 10 C-5.67 7.69 -5.34 5.38 -5 3 C-4.01 3.33 -3.02 3.66 -2 4 C-1.34 2.68 -0.68 1.36 0 0 Z " fill="#DA9930" transform="translate(130,94)"/>
<path d="M0 0 C0.99 0.495 0.99 0.495 2 1 C2 1.66 2 2.32 2 3 C2.66 3 3.32 3 4 3 C4 5.31 4 7.62 4 10 C3.01 9.67 2.02 9.34 1 9 C0.67 6.03 0.34 3.06 0 0 Z " fill="#C36E26" transform="translate(147,88)"/>
<path d="M0 0 C0.99 0.33 1.98 0.66 3 1 C3 1.99 3 2.98 3 4 C3.99 4 4.98 4 6 4 C5.67 4.99 5.34 5.98 5 7 C5 6.34 5 5.68 5 5 C4.01 5 3.02 5 2 5 C2 7.31 2 9.62 2 12 C1.34 11.67 0.68 11.34 0 11 C0 7.37 0 3.74 0 0 Z " fill="#573528" transform="translate(164,35)"/>
<path d="M0 0 C0.66386719 0.20496094 1.32773438 0.40992188 2.01171875 0.62109375 C2.89472656 0.89050781 3.77773437 1.15992188 4.6875 1.4375 C5.55761719 1.70433594 6.42773438 1.97117188 7.32421875 2.24609375 C9.87025921 2.96344529 12.4003423 3.517541 15 4 C15 4.33 15 4.66 15 5 C9.88081854 5.1765235 5.75016635 5.2012966 1 3 C0.67 2.01 0.34 1.02 0 0 Z " fill="#D8771A" transform="translate(204,193)"/>
<path d="M0 0 C0.99 0.33 1.98 0.66 3 1 C3 4.96 3 8.92 3 13 C2.34 13 1.68 13 1 13 C0.67 8.71 0.34 4.42 0 0 Z " fill="#D3721B" transform="translate(222,180)"/>
<path d="M0 0 C1.32 0.33 2.64 0.66 4 1 C4 2.65 4 4.3 4 6 C1.59454362 7.20272819 0.05003047 7.10071472 -2.625 7.0625 C-3.85089844 7.04896484 -3.85089844 7.04896484 -5.1015625 7.03515625 C-6.04128906 7.01775391 -6.04128906 7.01775391 -7 7 C-7 6.67 -7 6.34 -7 6 C-4.36 5.34 -1.72 4.68 1 4 C0.67 2.68 0.34 1.36 0 0 Z " fill="#B68435" transform="translate(217,126)"/>
<path d="M0 0 C2.475 0.99 2.475 0.99 5 2 C5 3.32 5 4.64 5 6 C3.68 6 2.36 6 1 6 C1 5.34 1 4.68 1 4 C0.34 4 -0.32 4 -1 4 C-0.67 2.68 -0.34 1.36 0 0 Z " fill="#F3AA21" transform="translate(213,125)"/>
<path d="M0 0 C-0.86625 0.0928125 -0.86625 0.0928125 -1.75 0.1875 C-4.88690987 1.32027301 -6.09167504 3.34197595 -8 6 C-8 5.34 -8 4.68 -8 4 C-8.66 4 -9.32 4 -10 4 C-9.625 2.0625 -9.625 2.0625 -9 0 C-5.93109813 -1.53445094 -3.29905734 -0.54984289 0 0 Z " fill="#DF9A2D" transform="translate(130,92)"/>
<path d="M0 0 C3 1 3 1 5 4 C5.125 7.1875 5.125 7.1875 5 10 C4.6596875 9.071875 4.6596875 9.071875 4.3125 8.125 C2.62070165 5.38589791 1.00755839 4.94975528 -2 4 C-1.67 3.34 -1.34 2.68 -1 2 C-0.34 2.33 0.32 2.66 1 3 C0.67 2.01 0.34 1.02 0 0 Z " fill="#CF9226" transform="translate(209,172)"/>
<path d="M0 0 C1.66666667 1.66666667 3.33333333 3.33333333 5 5 C5.8971875 5.8353125 5.8971875 5.8353125 6.8125 6.6875 C8 8 8 8 8 10 C5.37812506 8.95125002 4.20628639 8.35068687 2.75 5.875 C2.5025 5.25625 2.255 4.6375 2 4 C1.34 4 0.68 4 0 4 C0 2.68 0 1.36 0 0 Z " fill="#DD9B25" transform="translate(177,161)"/>
<path d="M0 0 C0.99 0.33 1.98 0.66 3 1 C2.34 1 1.68 1 1 1 C1.33 2.32 1.66 3.64 2 5 C2.66 5 3.32 5 4 5 C5.6875 6.8125 5.6875 6.8125 7 9 C6.67 9.99 6.34 10.98 6 12 C5.34 10.68 4.68 9.36 4 8 C3.34 8 2.68 8 2 8 C0.3125 5.6875 0.3125 5.6875 -1 3 C-0.67 2.01 -0.34 1.02 0 0 Z " fill="#654827" transform="translate(204,137)"/>
<path d="M0 0 C0.33 0.99 0.66 1.98 1 3 C-0.17578125 4.51953125 -0.17578125 4.51953125 -2 6 C-4.48046875 6.07421875 -4.48046875 6.07421875 -7.1875 5.6875 C-8.08855469 5.56761719 -8.98960937 5.44773437 -9.91796875 5.32421875 C-10.60503906 5.21722656 -11.29210937 5.11023438 -12 5 C-12 4.34 -12 3.68 -12 3 C-9.02148438 3.43945312 -9.02148438 3.43945312 -6.04296875 3.87890625 C-3.7974658 4.13904799 -3.7974658 4.13904799 -1 3 C-0.67 2.01 -0.34 1.02 0 0 Z " fill="#C18C37" transform="translate(185,118)"/>
<path d="M0 0 C0.33 1.65 0.66 3.3 1 5 C-0.65 5.33 -2.3 5.66 -4 6 C-4 4.68 -4 3.36 -4 2 C-4.99 1.67 -5.98 1.34 -7 1 C-4.50935112 0.31292445 -2.62113708 0 0 0 Z " fill="#915527" transform="translate(130,113)"/>
<path d="M0 0 C1.02196992 0.97753644 2.01979625 1.9805881 3 3 C6.61023099 3.73041853 6.61023099 3.73041853 10 4 C10 4.33 10 4.66 10 5 C7.69 5 5.38 5 3 5 C2.67 6.32 2.34 7.64 2 9 C1.67 7.02 1.34 5.04 1 3 C-1.31 2.67 -3.62 2.34 -6 2 C-6 1.67 -6 1.34 -6 1 C-3.1875 0.3125 -3.1875 0.3125 0 0 Z " fill="#62432B" transform="translate(129,89)"/>
<path d="M0 0 C1.32 0 2.64 0 4 0 C4 0.66 4 1.32 4 2 C6.97 2.495 6.97 2.495 10 3 C9.360625 3.12375 8.72125 3.2475 8.0625 3.375 C7.381875 3.58125 6.70125 3.7875 6 4 C5.67 4.66 5.34 5.32 5 6 C4.01 5.67 3.02 5.34 2 5 C2 4.34 2 3.68 2 3 C1.34 2.67 0.68 2.34 0 2 C0 1.34 0 0.68 0 0 Z " fill="#B66622" transform="translate(174,174)"/>
<path d="M0 0 C0.99 0 1.98 0 3 0 C3 0.99 3 1.98 3 3 C3.99 3.33 4.98 3.66 6 4 C6 4.99 6 5.98 6 7 C5.01 7 4.02 7 3 7 C3 7.99 3 8.98 3 10 C1.68 9.67 0.36 9.34 -1 9 C-0.67 8.34 -0.34 7.68 0 7 C0.66 7.33 1.32 7.66 2 8 C2 6.68 2 5.36 2 4 C2 3.01 2 2.02 2 1 C1.34 0.67 0.68 0.34 0 0 Z " fill="#7F512F" transform="translate(103,113)"/>
<path d="M0 0 C0.33 0 0.66 0 1 0 C1.33 2.64 1.66 5.28 2 8 C3.32 8 4.64 8 6 8 C5.67 8.99 5.34 9.98 5 11 C4.34 11 3.68 11 3 11 C2.01 11.495 2.01 11.495 1 12 C0.03929566 9.11788698 -0.10581883 7.30149956 -0.0625 4.3125 C-0.05347656 3.50425781 -0.04445312 2.69601563 -0.03515625 1.86328125 C-0.02355469 1.24839844 -0.01195312 0.63351563 0 0 Z " fill="#F5AC29" transform="translate(206,99)"/>
<path d="M0 0 C1.32 0 2.64 0 4 0 C4 0.66 4 1.32 4 2 C5.65 2.33 7.3 2.66 9 3 C8.34 5.97 7.68 8.94 7 12 C4.91045968 7.82091936 4.83447381 7.19589427 6 3 C5.01 3 4.02 3 3 3 C3 2.34 3 1.68 3 1 C2.01 0.67 1.02 0.34 0 0 Z " fill="#C48828" transform="translate(217,87)"/>
<path d="M0 0 C1.98 0.99 1.98 0.99 4 2 C4 2.66 4 3.32 4 4 C4.99 4.33 5.98 4.66 7 5 C6.67 6.32 6.34 7.64 6 9 C4.5 7.625 4.5 7.625 3 6 C3 5.34 3 4.68 3 4 C2.34 4 1.68 4 1 4 C0.67 2.68 0.34 1.36 0 0 Z " fill="#D89527" transform="translate(205,138)"/>
<path d="M0 0 C1.20568053 4.67201205 1.09382426 9.21496292 1 14 C0.67 14 0.34 14 0 14 C-0.13277344 13.39671875 -0.26554688 12.7934375 -0.40234375 12.171875 C-0.57894531 11.37265625 -0.75554687 10.5734375 -0.9375 9.75 C-1.11152344 8.96109375 -1.28554687 8.1721875 -1.46484375 7.359375 C-1.947556 5.23121297 -2.46163178 3.11467158 -3 1 C-1 0 -1 0 0 0 Z " fill="#7D4F25" transform="translate(225,110)"/>
<path d="M0 0 C0.66 0 1.32 0 2 0 C2.33 1.98 2.66 3.96 3 6 C2.01 6.33 1.02 6.66 0 7 C-0.66 5.35 -1.32 3.7 -2 2 C-1.34 1.34 -0.68 0.68 0 0 Z " fill="#B2702D" transform="translate(182,91)"/>
<path d="M0 0 C0.99 0.33 1.98 0.66 3 1 C3.33 2.65 3.66 4.3 4 6 C2.68 6.33 1.36 6.66 0 7 C0 4.66666667 0 2.33333333 0 0 Z " fill="#DC9F37" transform="translate(189,164)"/>
<path d="M0 0 C-0.99 0.495 -0.99 0.495 -2 1 C-2 1.99 -2 2.98 -2 4 C-4.31 3.67 -6.62 3.34 -9 3 C-9 2.34 -9 1.68 -9 1 C-6.04335481 -0.4783226 -3.25770263 -0.06032783 0 0 Z " fill="#ECAB27" transform="translate(128,147)"/>
<path d="M0 0 C-0.33 0.99 -0.66 1.98 -1 3 C-1.66 2.67 -2.32 2.34 -3 2 C-3.33 2.99 -3.66 3.98 -4 5 C-5.32 5 -6.64 5 -8 5 C-8 4.01 -8 3.02 -8 2 C-5.09399739 0.74335022 -3.20395416 0 0 0 Z " fill="#E27922" transform="translate(136,116)"/>
<path d="M0 0 C1.32 0 2.64 0 4 0 C4 0.66 4 1.32 4 2 C5.32 2.33 6.64 2.66 8 3 C7.01 4.485 7.01 4.485 6 6 C4 6 4 6 1.875 4.125 C0 2 0 2 0 0 Z " fill="#D6902A" transform="translate(91,89)"/>
<path d="M0 0 C0.66 0 1.32 0 2 0 C1.38461538 5.53846154 1.38461538 5.53846154 -0.5625 7.875 C-1.036875 8.24625 -1.51125 8.6175 -2 9 C-2.33 8.34 -2.66 7.68 -3 7 C-2.34 7 -1.68 7 -1 7 C-1.309375 5.824375 -1.309375 5.824375 -1.625 4.625 C-1.74875 3.75875 -1.8725 2.8925 -2 2 C-1.34 1.34 -0.68 0.68 0 0 Z " fill="#CD7323" transform="translate(173,46)"/>
<path d="M0 0 C1.32 0 2.64 0 4 0 C4 1.65 4 3.3 4 5 C3.01 5.495 3.01 5.495 2 6 C2 5.34 2 4.68 2 4 C0.68 3.67 -0.64 3.34 -2 3 C-1.34 2.01 -0.68 1.02 0 0 Z " fill="#E37A22" transform="translate(164,30)"/>
<path d="M0 0 C1.65 0.33 3.3 0.66 5 1 C5 1.66 5 2.32 5 3 C4.01 3.495 4.01 3.495 3 4 C3 4.33 3 4.66 3 5 C1.02 5 -0.96 5 -3 5 C-2.01 3.35 -1.02 1.7 0 0 Z " fill="#F6AA29" transform="translate(205,172)"/>
<path d="M0 0 C0.99 0.33 1.98 0.66 3 1 C3.33 1.99 3.66 2.98 4 4 C3.01 5.485 3.01 5.485 2 7 C1.34 7 0.68 7 0 7 C-0.66 5.68 -1.32 4.36 -2 3 C-1.34 3 -0.68 3 0 3 C0 2.01 0 1.02 0 0 Z " fill="#BA7130" transform="translate(211,161)"/>
<path d="M0 0 C0 0.33 0 0.66 0 1 C-2.64 1.66 -5.28 2.32 -8 3 C-8.33 4.32 -8.66 5.64 -9 7 C-9 5.02 -9 3.04 -9 1 C-5.64919071 -1.10976881 -3.77897651 -1.0497157 0 0 Z " fill="#C28830" transform="translate(149,158)"/>
<path d="M0 0 C0 0.66 0 1.32 0 2 C-0.99 2.495 -0.99 2.495 -2 3 C-3.13350534 5.01669827 -3.13350534 5.01669827 -4 7 C-4.99 7 -5.98 7 -7 7 C-7 4 -7 4 -5.1875 1.8125 C-3 0 -3 0 0 0 Z " fill="#AC6830" transform="translate(190,129)"/>
<path d="M0 0 C0.66 0.33 1.32 0.66 2 1 C2 3.64 2 6.28 2 9 C0.68 9.33 -0.64 9.66 -2 10 C-2 9.34 -2 8.68 -2 8 C-1.34 8 -0.68 8 0 8 C0 5.36 0 2.72 0 0 Z " fill="#957242" transform="translate(159,113)"/>
<path d="M0 0 C-1.13304992 3.39914975 -2.12518475 4.05254451 -5 6 C-5.33 4.02 -5.66 2.04 -6 0 C-3.50907189 -1.24546405 -2.58919267 -0.7767578 0 0 Z " fill="#B86E2B" transform="translate(117,90)"/>
<path d="M0 0 C0.66 0.33 1.32 0.66 2 1 C2 1.66 2 2.32 2 3 C2.66 3.33 3.32 3.66 4 4 C3.01 5.485 3.01 5.485 2 7 C2 6.34 2 5.68 2 5 C1.34 5 0.68 5 0 5 C0 5.66 0 6.32 0 7 C-1.65 7 -3.3 7 -5 7 C-3.68 6.67 -2.36 6.34 -1 6 C-0.67 4.02 -0.34 2.04 0 0 Z " fill="#D2962E" transform="translate(168,77)"/>
<path d="M0 0 C2.475 0.495 2.475 0.495 5 1 C5 2.32 5 3.64 5 5 C5.99 5 6.98 5 8 5 C7.67 5.99 7.34 6.98 7 8 C7 7.34 7 6.68 7 6 C5.68 6.33 4.36 6.66 3 7 C2.67 6.01 2.34 5.02 2 4 C2.66 4 3.32 4 4 4 C4 3.34 4 2.68 4 2 C2.68 2 1.36 2 0 2 C0 1.34 0 0.68 0 0 Z " fill="#985725" transform="translate(127,123)"/>
<path d="M0 0 C2.475 0.495 2.475 0.495 5 1 C5.33 1.99 5.66 2.98 6 4 C5.67 4.66 5.34 5.32 5 6 C4.01 6 3.02 6 2 6 C0 3 0 3 0 0 Z " fill="#A97829" transform="translate(237,101)"/>
<path d="M0 0 C0.66 1.32 1.32 2.64 2 4 C-2.75 6.875 -2.75 6.875 -5 8 C-4.45773019 4.20411134 -2.79872437 2.52788007 0 0 Z " fill="#CB7421" transform="translate(124,166)"/>
<path d="M0 0 C2.0625 0.4375 2.0625 0.4375 4 1 C4.33 2.98 4.66 4.96 5 7 C4.34 7 3.68 7 3 7 C2.67 6.01 2.34 5.02 2 4 C0.50014391 2.33289654 0.50014391 2.33289654 -1 1 C-0.67 0.67 -0.34 0.34 0 0 Z " fill="#F4AD2F" transform="translate(159,134)"/>
<path d="M0 0 C2 3 2 3 2 5 C2.66 5 3.32 5 4 5 C3.67 5.66 3.34 6.32 3 7 C1.35 6.67 -0.3 6.34 -2 6 C-2 4.35 -2 2.7 -2 1 C-1.34 0.67 -0.68 0.34 0 0 Z " fill="#F5AD28" transform="translate(117,102)"/>
<path d="M0 0 C2.475 0.99 2.475 0.99 5 2 C4.67 4.64 4.34 7.28 4 10 C3.67 10 3.34 10 3 10 C2.731875 9.05125 2.46375 8.1025 2.1875 7.125 C1.25013412 3.74732727 1.25013412 3.74732727 -2 2 C-1.34 2 -0.68 2 0 2 C0 1.34 0 0.68 0 0 Z " fill="#7C562E" transform="translate(207,95)"/>
<path d="M0 0 C0.66 0 1.32 0 2 0 C2.125 5.75 2.125 5.75 1 8 C0.01 8 -0.98 8 -2 8 C-1.33333333 5.33333333 -0.66666667 2.66666667 0 0 Z " fill="#AE6623" transform="translate(126,170)"/>
<path d="M0 0 C0.92900148 3.43358947 1.23296968 6.42779828 1 10 C0.34 10.66 -0.32 11.32 -1 12 C-2.45606519 7.47907032 -1.27032841 4.48351204 0 0 Z M1 8 C3 9 3 9 3 9 Z " fill="#C18D33" transform="translate(115,99)"/>
<path d="M0 0 C1.32 0.33 2.64 0.66 4 1 C4 1.66 4 2.32 4 3 C3.34 3 2.68 3 2 3 C2 3.66 2 4.32 2 5 C0.68 4.34 -0.64 3.68 -2 3 C-1.34 2.01 -0.68 1.02 0 0 Z " fill="#D69728" transform="translate(78,92)"/>
<path d="M0 0 C0.91007813 0.10183594 1.82015625 0.20367187 2.7578125 0.30859375 C3.45648438 0.39238281 4.15515625 0.47617188 4.875 0.5625 C4.875 0.8925 4.875 1.2225 4.875 1.5625 C-1.065 2.0575 -1.065 2.0575 -7.125 2.5625 C-7.125 1.9025 -7.125 1.2425 -7.125 0.5625 C-4.50184968 -0.74907516 -2.89466564 -0.33399988 0 0 Z " fill="#663922" transform="translate(142.125,86.4375)"/>
<path d="M0 0 C0 0.99 0 1.98 0 3 C-1.98 3 -3.96 3 -6 3 C-6 2.01 -6 1.02 -6 0 C-3.50907189 -1.24546405 -2.58919267 -0.7767578 0 0 Z " fill="#F5A526" transform="translate(213,85)"/>
<path d="M0 0 C0.66 0 1.32 0 2 0 C2.66 1.65 3.32 3.3 4 5 C2.02 5 0.04 5 -2 5 C-1.34 3.35 -0.68 1.7 0 0 Z " fill="#E8A22A" transform="translate(159,160)"/>
<path d="M0 0 C0.268125 0.639375 0.53625 1.27875 0.8125 1.9375 C1.88667752 4.33131686 1.88667752 4.33131686 5 5 C4.01 6.485 4.01 6.485 3 8 C0.9375 5.6875 0.9375 5.6875 -1 3 C-0.67 2.01 -0.34 1.02 0 0 Z " fill="#704823" transform="translate(187,157)"/>
<path d="M0 0 C1.98 0.495 1.98 0.495 4 1 C3.67 1.99 3.34 2.98 3 4 C2.01 4 1.02 4 0 4 C-0.33 4.66 -0.66 5.32 -1 6 C-0.67 4.02 -0.34 2.04 0 0 Z " fill="#E8A432" transform="translate(157,126)"/>
<path d="M0 0 C0.99 0 1.98 0 3 0 C3 0.66 3 1.32 3 2 C3.66 2 4.32 2 5 2 C5 2.66 5 3.32 5 4 C4.34 4 3.68 4 3 4 C2.67 4.66 2.34 5.32 2 6 C2 5.34 2 4.68 2 4 C1.34 4 0.68 4 0 4 C0 2.68 0 1.36 0 0 Z " fill="#F0AA32" transform="translate(236,97)"/>
<path d="M0 0 C0.66 0.33 1.32 0.66 2 1 C1.625 2.9375 1.625 2.9375 1 5 C0.01 5.495 0.01 5.495 -1 6 C-1.33 5.34 -1.66 4.68 -2 4 C-2.99 4 -3.98 4 -5 4 C-4.34 3.34 -3.68 2.68 -3 2 C-2.01 2 -1.02 2 0 2 C0 1.34 0 0.68 0 0 Z " fill="#AD6424" transform="translate(139,184)"/>
<path d="M0 0 C2.97 0.495 2.97 0.495 6 1 C4.6875 2.5 4.6875 2.5 3 4 C2.01 4 1.02 4 0 4 C0 2.68 0 1.36 0 0 Z " fill="#F8AD1E" transform="translate(165,137)"/>
<path d="M0 0 C0.66 0.33 1.32 0.66 2 1 C1.67 2.32 1.34 3.64 1 5 C-0.65 5.33 -2.3 5.66 -4 6 C-4 5.34 -4 4.68 -4 4 C-2.68 4 -1.36 4 0 4 C-0.33 3.01 -0.66 2.02 -1 1 C-0.67 0.67 -0.34 0.34 0 0 Z " fill="#694425" transform="translate(244,91)"/>
<path d="M0 0 C2.4375 0.375 2.4375 0.375 5 1 C5.33 1.66 5.66 2.32 6 3 C5.0625 5.125 5.0625 5.125 4 7 C4 5.68 4 4.36 4 3 C3.01 3 2.02 3 1 3 C0.67 2.01 0.34 1.02 0 0 Z " fill="#4E342A" transform="translate(141,91)"/>
<path d="M0 0 C0.33 0.66 0.66 1.32 1 2 C0.0625 4.625 0.0625 4.625 -1 7 C-2.32 6.34 -3.64 5.68 -5 5 C-4.67 4.34 -4.34 3.68 -4 3 C-3.01 3 -2.02 3 -1 3 C-0.67 2.01 -0.34 1.02 0 0 Z " fill="#AF8032" transform="translate(167,69)"/>
</svg>
